<svg width="563" height="563" viewBox="0 0 563 563" fill="none" xmlns="http://www.w3.org/2000/svg">
<g clip-path="url(#clip0_311_1832)">
<mask id="mask0_311_1832" style="mask-type:luminance" maskUnits="userSpaceOnUse" x="0" y="0" width="563" height="563">
<path d="M281.21 562.42C436.518 562.42 562.42 436.518 562.42 281.21C562.42 125.902 436.518 0 281.21 0C125.902 0 0 125.902 0 281.21C0 436.518 125.902 562.42 281.21 562.42Z" fill="white"/>
</mask>
<g mask="url(#mask0_311_1832)">
<path d="M281.21 562.42C436.518 562.42 562.42 436.518 562.42 281.21C562.42 125.902 436.518 0 281.21 0C125.902 0 0 125.902 0 281.21C0 436.518 125.902 562.42 281.21 562.42Z" fill="#EF4444"/>
</g>
<mask id="mask1_311_1832" style="mask-type:luminance" maskUnits="userSpaceOnUse" x="0" y="0" width="563" height="563">
<path d="M281.21 562.42C436.518 562.42 562.42 436.518 562.42 281.21C562.42 125.902 436.518 0 281.21 0C125.902 0 0 125.902 0 281.21C0 436.518 125.902 562.42 281.21 562.42Z" fill="white"/>
</mask>
<g mask="url(#mask1_311_1832)">
<path d="M457.33 326.69C460.47 310.77 458.05 271.2 452.99 247.07C447.97 223.19 429.2 179.26 428.83 178.39C411.41 159.21 390.92 142.55 381.46 135.61C365.66 124.03 299.07 116.79 281.22 116.79C263.37 116.79 196.78 124.03 180.98 135.61C171.5 142.56 150.98 159.24 133.55 178.45C132.91 179.94 114.39 223.36 109.41 247.07C104.34 271.2 101.93 310.76 105.07 326.69C108.21 342.61 121.23 398.83 131.37 416.44C138.77 429.31 168.53 460.53 184.05 476.45C222.38 488.8 267.67 498.95 281.22 498.95C294.77 498.95 340.03 488.81 378.35 476.46C393.87 460.54 423.64 429.31 431.04 416.44C441.17 398.83 454.2 342.62 457.33 326.69Z" fill="#9BB9BC"/>
<path d="M480.49 341.17C486.76 308.84 466.98 250.46 455.4 218.13C450.76 205.17 440.47 191.23 428.83 178.4C429.21 179.28 447.98 223.2 452.99 247.08C458.06 271.21 460.47 310.77 457.33 326.7C454.19 342.62 441.17 398.84 431.03 416.45C423.62 429.32 393.86 460.55 378.34 476.47C397.32 470.35 414.61 463.7 425.48 457.47C458.3 438.64 474.22 373.5 480.49 341.17Z" fill="#7BA1A3"/>
<path d="M105.06 326.69C101.92 310.77 104.34 271.2 109.4 247.07C114.38 223.36 132.9 179.94 133.54 178.45C121.91 191.26 111.65 205.18 107.02 218.12C95.44 250.45 75.66 308.83 81.93 341.16C88.2 373.49 104.13 438.63 136.94 457.45C147.8 463.68 165.07 470.33 184.04 476.44C168.52 460.52 138.76 429.3 131.36 416.43C121.23 398.83 108.2 342.62 105.06 326.69Z" fill="#7BA1A3"/>
<path d="M341.89 259.04C340.53 250.58 351.05 238.64 355.75 236.56C360.44 234.49 379.64 238.09 385.21 242.67C390.77 247.25 388.48 264.93 385.21 270.82C381.94 276.71 366.81 279.22 359.81 278.13C352.8 277.04 342.87 265.15 341.89 259.04Z" fill="#212121"/>
<path d="M375.67 245.53C377.79 245.32 380.59 248.12 381.03 249.32C381.47 250.52 380.28 255.22 379.06 256.53C377.84 257.84 373.49 257 372.08 256.09C370.67 255.19 370.28 251.4 370.66 249.68C371.04 247.96 374.14 245.68 375.67 245.53Z" fill="white"/>
<path d="M220.51 259.07C221.87 250.61 211.35 238.67 206.65 236.59C201.96 234.52 182.76 238.12 177.19 242.7C171.63 247.28 173.92 264.96 177.19 270.85C180.46 276.74 195.59 279.25 202.59 278.16C209.59 277.07 219.52 265.18 220.51 259.07Z" fill="#212121"/>
<path d="M204.76 245.56C206.88 245.35 209.68 248.15 210.12 249.35C210.56 250.55 209.37 255.25 208.15 256.56C206.93 257.87 202.58 257.03 201.17 256.12C199.76 255.22 199.37 251.43 199.75 249.71C200.13 247.98 203.23 245.71 204.76 245.56Z" fill="white"/>
<path d="M343.21 274.78C343.21 274.78 359.86 268.27 366.46 268.36C373.06 268.45 398.58 272.88 398.58 272.88L372.25 288.8L343.21 274.78Z" fill="#9BB9BC"/>
<path d="M219.22 274.78C219.22 274.78 202.57 268.27 195.97 268.36C189.37 268.45 163.85 272.88 163.85 272.88L190.18 288.8L219.22 274.78Z" fill="#9BB9BC"/>
<path d="M382.81 158.23C382.81 158.23 382.6 144.5 382.81 137.73C383.02 130.97 405.42 112.16 410.91 109.2C416.4 106.24 467.54 105.61 475.36 105.19C475.36 105.19 464.79 146.39 460.36 158.23C455.92 170.06 441.77 180.42 436.48 183.37C431.2 186.33 421.86 188.33 421.86 188.33C421.86 188.33 397.89 177.21 382.81 158.23Z" fill="#9BB9BC"/>
<path d="M410.42 151.89C409.66 153.91 408.09 163.14 406.95 170.23C411.4 175.46 414.64 179.64 414.64 179.64C414.64 179.64 431.54 175.7 436.76 170.62C441.97 165.55 450.71 153.15 453.24 145.26C455.78 137.37 459.02 115.12 459.02 115.12C459.02 115.12 433.1 124.98 428.03 128.78C422.96 132.59 411.69 148.51 410.42 151.89Z" fill="#7BA1A3"/>
<path d="M404.5 138.93C402.11 144.42 398.87 161.19 398.87 161.19C401.72 164.19 404.51 167.37 406.95 170.24C408.09 163.14 409.66 153.92 410.42 151.9C411.69 148.52 422.96 132.6 428.03 128.8C433.1 125 459.02 115.14 459.02 115.14C459.02 115.14 422.82 117.68 420 119.23C417.18 120.76 406.9 133.43 404.5 138.93Z" fill="#648484"/>
<path d="M179.59 158.23C179.59 158.23 179.8 144.5 179.59 137.73C179.38 130.97 156.98 112.16 151.49 109.2C146 106.24 94.86 105.61 87.04 105.19C87.04 105.19 97.61 146.39 102.04 158.23C106.48 170.06 120.63 180.42 125.92 183.37C131.2 186.33 140.54 188.33 140.54 188.33C140.54 188.33 164.5 177.21 179.59 158.23Z" fill="#9BB9BC"/>
<path d="M151.98 151.89C152.74 153.91 154.31 163.14 155.45 170.23C151 175.46 147.76 179.64 147.76 179.64C147.76 179.64 130.86 175.7 125.64 170.62C120.43 165.55 111.69 153.15 109.16 145.26C106.62 137.37 103.38 115.12 103.38 115.12C103.38 115.12 129.3 124.98 134.37 128.78C139.44 132.59 150.71 148.51 151.98 151.89Z" fill="#7BA1A3"/>
<path d="M157.89 138.93C160.28 144.42 163.52 161.19 163.52 161.19C160.67 164.19 157.88 167.37 155.43 170.24C154.29 163.14 152.72 153.92 151.96 151.9C150.69 148.52 139.42 132.6 134.35 128.8C129.28 125 103.36 115.14 103.36 115.14C103.36 115.14 139.56 117.68 142.38 119.23C145.22 120.76 155.5 133.43 157.89 138.93Z" fill="#648484"/>
<path d="M388.57 436.04C380.27 448.06 312.87 467.5 303.46 469.98C294.05 472.45 281.19 473.52 281.19 473.52C281.19 473.52 268.33 472.46 258.92 469.98C249.51 467.51 182.12 448.06 173.81 436.04C165.51 424.02 148.9 384.07 143.11 364.63C137.32 345.19 134.79 300.29 134.79 300.29C134.79 300.29 133.7 363.34 135.88 381.01C138.05 398.69 159.76 452.89 164.35 461.38C168.93 469.86 194.27 490.6 194.27 490.6L281.2 515.23L368.13 490.6C368.13 490.6 393.46 469.86 398.05 461.38C402.63 452.9 424.35 398.69 426.52 381.01C428.69 363.33 427.61 300.29 427.61 300.29C427.61 300.29 425.08 345.19 419.29 364.63C413.48 384.08 396.88 424.02 388.57 436.04Z" fill="#7BA1A3"/>
<path d="M132.38 285.8C132.38 285.8 108.75 287.78 108.39 288.73C108.03 289.68 116.59 311.25 116.59 311.25L134.8 300.29L153.38 299.17L132.38 285.8Z" fill="#9BB9BC"/>
<path d="M454.01 288.73C453.65 287.78 430.02 285.8 430.02 285.8L409.01 299.17L427.59 300.29L445.81 311.25C445.81 311.25 454.37 289.68 454.01 288.73Z" fill="#9BB9BC"/>
<path d="M409.01 299.17L281.2 291.45L153.38 299.17L281.2 380.54L409.01 299.17Z" fill="#9BB9BC"/>
<path d="M281.2 165.35C281.2 165.35 241.82 255.58 238.15 267.18C234.48 278.77 224.43 319.94 224.43 319.94C224.43 319.94 245.09 343.64 250.14 344.91C255.19 346.18 281.2 349.11 281.2 349.11C281.2 349.11 302.54 346.7 310.29 345.31C307.71 318.32 299.85 262.16 297.68 249.31C295.26 235.07 281.2 165.35 281.2 165.35Z" fill="#EAE9E1"/>
<path d="M337.97 319.94C337.97 319.94 327.92 278.77 324.25 267.18C320.58 255.59 281.2 165.35 281.2 165.35C281.2 165.35 295.27 235.07 297.68 249.31C299.86 262.16 307.71 318.31 310.29 345.31C311.09 345.17 311.79 345.03 312.26 344.91C317.31 343.64 337.97 319.94 337.97 319.94Z" fill="#D6D4C9"/>
<path d="M335.03 425.67C335.03 425.67 337.74 412.74 340.51 410.07C343.27 407.4 358.87 399.21 358.87 399.21C358.87 399.21 361.25 410.56 361.15 414.32C361.05 418.07 354.34 426.76 352.56 429.13C350.78 431.5 336.37 435.65 336.37 435.65C336.37 435.65 335.16 430.04 335.04 425.91" fill="#648484"/>
<path d="M227.36 425.67C227.36 425.67 224.65 412.74 221.88 410.07C219.12 407.4 203.52 399.21 203.52 399.21C203.52 399.21 201.14 410.56 201.24 414.32C201.34 418.07 208.05 426.76 209.83 429.13C211.61 431.5 226.02 435.65 226.02 435.65C226.02 435.65 227.23 430.04 227.35 425.91" fill="#648484"/>
</g>
</g>
<defs>
<clipPath id="clip0_311_1832">
<rect width="562.43" height="562.43" fill="white"/>
</clipPath>
</defs>
</svg>
