<svg width="563" height="563" viewBox="0 0 563 563" fill="none" xmlns="http://www.w3.org/2000/svg">
<g clip-path="url(#clip0_311_1669)">
<mask id="mask0_311_1669" style="mask-type:luminance" maskUnits="userSpaceOnUse" x="0" y="0" width="563" height="563">
<path d="M281.21 562.42C436.518 562.42 562.42 436.518 562.42 281.21C562.42 125.902 436.518 0 281.21 0C125.902 0 0 125.902 0 281.21C0 436.518 125.902 562.42 281.21 562.42Z" fill="white"/>
</mask>
<g mask="url(#mask0_311_1669)">
<path d="M281.21 562.42C436.518 562.42 562.42 436.518 562.42 281.21C562.42 125.902 436.518 0 281.21 0C125.902 0 0 125.902 0 281.21C0 436.518 125.902 562.42 281.21 562.42Z" fill="#22C55E"/>
</g>
<mask id="mask1_311_1669" style="mask-type:luminance" maskUnits="userSpaceOnUse" x="0" y="0" width="563" height="563">
<path d="M281.21 562.42C436.518 562.42 562.42 436.518 562.42 281.21C562.42 125.902 436.518 0 281.21 0C125.902 0 0 125.902 0 281.21C0 436.518 125.902 562.42 281.21 562.42Z" fill="white"/>
</mask>
<g mask="url(#mask1_311_1669)">
<path d="M479.58 167.6C479.16 160.11 477.35 149.11 475.95 141.41C473.36 137.35 469.09 130.85 467.75 130.16C466.43 129.47 460.48 127.33 456.7 125.99C456.7 125.99 422.33 142.17 416.05 145.81C409.77 149.45 393.64 162.89 385.67 171.08C377.7 179.28 359.48 216.39 359.48 216.39L354.66 224.68L439.68 275.9C439.68 275.9 470.08 239.8 473.17 227.92C476.26 216.06 480.3 180.19 479.58 167.6Z" fill="#C96032"/>
<path d="M385.67 171.09C393.64 162.89 409.77 149.46 416.05 145.82C422.33 142.18 456.7 126 456.7 126C443.59 128.57 422.65 132.74 418.31 134.06C411.9 136.02 378.05 159 370.75 168.26C363.45 177.52 343.49 217.96 343.49 217.96L354.67 224.69L359.49 216.4C359.48 216.4 377.7 179.28 385.67 171.09Z" fill="#AA4724"/>
<path d="M491.34 130.67L482.34 127.73L492.76 123.81L481 122.83L485.72 114.01L467.46 123.9C467.46 123.9 462.96 124.76 456.69 125.99C460.47 127.33 466.42 129.47 467.74 130.16C469.08 130.86 473.36 137.35 475.94 141.41C474.99 136.17 474.23 132.45 474.23 132.45L491.34 130.67Z" fill="#5B3129"/>
<path d="M429.88 174.98C434.15 171.56 459.4 156.2 459.4 156.2C459.4 156.2 438.26 158.1 431.37 160.24C424.48 162.38 400.49 179 394.32 187.08C388.14 195.16 372.71 226.03 372.71 226.03L395.34 241.43C397.29 232.01 402.37 208.34 404.96 203.84C408.19 198.21 425.61 178.4 429.88 174.98Z" fill="#C9BBA9"/>
<path d="M429.88 174.98C425.61 178.4 408.19 198.2 404.95 203.84C402.36 208.33 397.29 232.01 395.33 241.43L429.94 264.99C429.94 264.99 450.84 245.28 453.22 237.2C455.59 229.12 463.43 207.51 463.43 197.3C463.43 187.09 459.39 156.21 459.39 156.21C459.39 156.21 434.15 171.57 429.88 174.98Z" fill="#EAE0D3"/>
<path d="M94.2499 130.16C95.5899 129.46 101.68 127.27 105.45 125.94C99.3199 124.74 94.9499 123.9 94.9499 123.9L76.6899 114.01L81.4099 122.83L69.6499 123.81L80.0699 127.73L71.0699 130.67L88.1699 132.45C88.1699 132.45 87.4999 135.74 86.6199 140.5C89.2399 136.44 93.0099 130.81 94.2499 130.16Z" fill="#5B3129"/>
<path d="M176.49 171.09C168.52 162.89 152.39 149.46 146.11 145.82C139.83 142.18 105.46 126 105.46 126L105.48 125.95C105.47 125.95 105.47 125.95 105.46 125.95C101.69 127.28 95.6 129.47 94.26 130.17C93.02 130.82 89.25 136.45 86.64 140.51C85.22 148.23 83.28 159.83 82.84 167.62C82.13 180.21 86.17 216.07 89.25 227.95C92.34 239.83 122.74 275.93 122.74 275.93L207.56 224.83L202.67 216.42C202.67 216.4 184.46 179.28 176.49 171.09Z" fill="#C96032"/>
<path d="M191.69 168.26C184.39 159 150.54 136.02 144.13 134.06C139.76 132.73 118.58 128.51 105.48 125.95L105.46 126C105.46 126 139.83 142.18 146.11 145.82C152.39 149.46 168.52 162.9 176.49 171.09C184.46 179.29 202.67 216.4 202.67 216.4L207.56 224.81L218.94 217.96C218.94 217.96 198.99 177.52 191.69 168.26Z" fill="#AA4724"/>
<path d="M168.11 187.08C161.93 179 137.95 162.38 131.06 160.24C124.17 158.1 103.03 156.2 103.03 156.2C103.03 156.2 129.39 171.56 133.66 174.98C137.93 178.4 155.35 198.2 158.59 203.84C161.12 208.23 166.03 230.95 168.07 240.77L189.73 226.03C189.73 226.03 174.29 195.16 168.11 187.08Z" fill="#C9BBA9"/>
<path d="M133.66 174.98C129.39 171.56 103.03 156.2 103.03 156.2C103.03 156.2 98.99 187.08 98.99 197.29C98.99 207.5 106.83 229.12 109.2 237.19C111.58 245.27 132.48 264.98 132.48 264.98L168.07 240.76C166.03 230.94 161.12 208.23 158.59 203.83C155.35 198.21 137.93 178.4 133.66 174.98Z" fill="#EAE0D3"/>
<path d="M445.16 269.3C431.18 253.95 388.59 219.65 367.43 211.35C344.21 202.24 281.13 194.96 281.13 194.96C281.13 194.96 218.06 202.25 194.83 211.35C173.48 219.72 130.28 254.59 116.71 269.73C116.18 273.35 112.66 298.68 114.45 315.61L114.38 316.1C126.95 300.37 142.13 282.91 149.74 279.89C164.09 274.2 196.87 266.23 205.07 269.19C213.27 272.15 236.72 287.41 241.27 297.2C245.82 306.99 253.11 342.74 252.88 355.95C252.65 369.16 248.57 405.47 248.57 405.47H313.69C313.69 405.47 309.59 369.15 309.36 355.95C309.13 342.74 316.42 307 320.97 297.2C325.52 287.41 348.98 272.15 357.17 269.19C365.37 266.23 398.15 274.2 412.5 279.89C420.03 282.88 434.97 300.01 447.47 315.62C449.4 297.52 445.24 269.83 445.16 269.3Z" fill="#C96032"/>
<path d="M116.72 269.73C115.53 271.06 114.48 272.29 113.78 273.29C105.81 284.61 95.7299 334.71 94.1799 342.57C94.3699 342.31 103.38 329.87 114.38 316.11L114.45 315.62C112.66 298.68 116.19 273.36 116.72 269.73Z" fill="#AA4724"/>
<path d="M448.49 273.29C447.72 272.19 446.53 270.81 445.16 269.3C445.24 269.83 449.4 297.52 447.49 315.61C458.79 329.72 468.1 342.59 468.1 342.59C466.57 334.82 456.47 284.62 448.49 273.29Z" fill="#AA4724"/>
<path d="M468.3 343.65C468.3 343.65 468.23 343.26 468.09 342.6C468.09 342.6 465.94 360.87 463.43 370.61C461.81 376.89 448.16 403.5 438.67 421.59C440.85 420.02 442.84 418.52 444.39 417.2C459.87 403.99 491.75 358.23 491.75 358.23C481.96 352.76 468.3 343.65 468.3 343.65Z" fill="#D3C2AE"/>
<path d="M93.97 343.64C93.97 343.64 80.31 352.75 70.52 358.22C70.52 358.22 102.4 403.99 117.88 417.19C119.3 418.4 121.11 419.77 123.07 421.2C113.59 403.12 100.12 376.84 98.51 370.6C96.35 362.24 94.46 347.61 93.97 343.64Z" fill="#D3C2AE"/>
<path d="M468.1 342.6C468.1 342.6 426.87 285.59 412.52 279.9C398.18 274.21 365.39 266.24 357.19 269.2C348.99 272.16 325.54 287.42 320.99 297.21C316.44 307 309.15 342.75 309.38 355.96C309.61 369.17 313.71 405.48 313.71 405.48H248.59C248.59 405.48 252.67 369.16 252.9 355.96C253.13 342.75 245.84 307.01 241.29 297.21C236.74 287.42 213.28 272.16 205.09 269.2C196.89 266.24 164.1 274.21 149.76 279.9C135.49 285.56 94.61 342.01 94.2 342.58C94.07 343.25 93.99 343.64 93.99 343.65C94.48 347.62 96.37 362.25 98.53 370.61C100.14 376.85 113.61 403.12 123.09 421.21C142.46 435.3 185.27 458.45 198.51 465.48C213.08 473.22 281.16 484.15 281.16 484.15C281.16 484.15 349.24 473.22 363.81 465.48C376.92 458.51 419.08 435.73 438.69 421.6C448.18 403.51 461.83 376.9 463.45 370.62C465.94 360.87 468.1 342.6 468.1 342.6Z" fill="#EAE0D3"/>
<path d="M331.04 327.99C329.92 321.04 338.58 311.21 342.43 309.51C346.29 307.81 362.08 310.77 366.65 314.53C371.23 318.3 369.34 332.83 366.65 337.68C363.96 342.52 351.52 344.59 345.76 343.69C340.01 342.79 331.85 333.01 331.04 327.99Z" fill="#212121"/>
<path d="M358.82 316.88C360.56 316.71 362.86 319.01 363.23 319.99C363.59 320.97 362.61 324.84 361.61 325.92C360.6 327 357.03 326.3 355.87 325.56C354.71 324.82 354.39 321.7 354.7 320.29C355.01 318.87 357.56 317 358.82 316.88Z" fill="white"/>
<path d="M231.23 328.01C232.35 321.06 223.69 311.23 219.84 309.53C215.98 307.83 200.19 310.79 195.62 314.55C191.04 318.32 192.93 332.85 195.62 337.7C198.31 342.54 210.75 344.61 216.51 343.71C222.26 342.81 230.42 333.03 231.23 328.01Z" fill="#212121"/>
<path d="M218.29 316.9C220.03 316.73 222.33 319.03 222.7 320.01C223.06 320.99 222.08 324.86 221.08 325.94C220.07 327.02 216.5 326.32 215.34 325.58C214.18 324.84 213.86 321.72 214.17 320.31C214.48 318.89 217.03 317.02 218.29 316.9Z" fill="white"/>
<path d="M299.71 453.97C298.65 455.14 292.1 457.08 289.21 456.49C286.81 456 285.86 454.78 284.09 453.1C283.21 446.82 281.13 441.77 281.13 441.77C281.13 441.77 279.05 446.83 278.17 453.1C276.4 454.78 275.46 456 273.05 456.49C270.16 457.08 263.61 455.14 262.55 453.97C261.49 452.8 259.15 446.93 259.15 446.93C259.15 446.93 259.33 455.02 260.26 457.84C261.2 460.66 270.82 462.36 272.64 462.36C274.08 462.36 279.12 459.08 281.18 457.7C281.48 457.91 287.84 462.36 289.61 462.36C291.43 462.36 301.05 460.66 301.99 457.84C302.93 455.02 303.1 446.93 303.1 446.93C303.1 446.93 300.77 452.79 299.71 453.97Z" fill="#D3C2AE"/>
<path d="M289.63 420.86C289.63 420.86 293.94 418.9 295.38 418.22C295.38 418.22 298.66 420.41 299.78 420.79C300.28 420.96 301.8 421.24 303.32 421.5C307.89 415.79 313.69 405.45 313.69 405.45C313.69 405.45 304.81 397.71 298.07 394.75C294.1 393.01 286.85 392.65 281.13 392.62C275.42 392.65 268.16 393.01 264.19 394.75C257.45 397.71 248.57 405.45 248.57 405.45C248.57 405.45 254.37 415.79 258.94 421.5C260.46 421.24 261.97 420.96 262.47 420.79C263.6 420.4 266.87 418.22 266.87 418.22C268.32 418.89 272.62 420.86 272.62 420.86C272.62 420.86 270.24 423.56 269.95 423.95C269.76 424.21 268.31 426.46 267.36 427.96C273.33 431.29 281.12 435.07 281.12 435.07C281.12 435.07 288.9 431.3 294.88 427.96C293.93 426.46 292.48 424.21 292.29 423.95C292.01 423.56 289.63 420.86 289.63 420.86Z" fill="#704236"/>
<path d="M303.32 421.51C301.8 421.25 300.29 420.97 299.78 420.8C298.66 420.41 295.38 418.23 295.38 418.23C293.93 418.9 289.63 420.87 289.63 420.87C289.63 420.87 292.01 423.57 292.3 423.96C292.49 424.22 293.94 426.47 294.89 427.97C297.15 426.71 299.16 425.51 300.37 424.6C301.23 423.96 302.24 422.86 303.32 421.51Z" fill="#5B3129"/>
<path d="M272.64 420.86C272.64 420.86 268.33 418.9 266.89 418.22C266.89 418.22 263.61 420.41 262.49 420.79C261.99 420.96 260.47 421.24 258.96 421.5C260.04 422.85 261.06 423.95 261.91 424.58C263.13 425.49 265.14 426.69 267.39 427.95C268.34 426.45 269.79 424.2 269.98 423.94C270.26 423.56 272.64 420.86 272.64 420.86Z" fill="#5B3129"/>
</g>
</g>
<defs>
<clipPath id="clip0_311_1669">
<rect width="562.43" height="562.43" fill="white"/>
</clipPath>
</defs>
</svg>
