<svg width="563" height="563" viewBox="0 0 563 563" fill="none" xmlns="http://www.w3.org/2000/svg">
<g clip-path="url(#clip0_311_1902)">
<mask id="mask0_311_1902" style="mask-type:luminance" maskUnits="userSpaceOnUse" x="0" y="0" width="563" height="563">
<path d="M281.21 562.42C436.518 562.42 562.42 436.518 562.42 281.21C562.42 125.902 436.518 0 281.21 0C125.902 0 0 125.902 0 281.21C0 436.518 125.902 562.42 281.21 562.42Z" fill="white"/>
</mask>
<g mask="url(#mask0_311_1902)">
<path d="M281.21 562.42C436.518 562.42 562.42 436.518 562.42 281.21C562.42 125.902 436.518 0 281.21 0C125.902 0 0 125.902 0 281.21C0 436.518 125.902 562.42 281.21 562.42Z" fill="#3B82F6"/>
</g>
<mask id="mask1_311_1902" style="mask-type:luminance" maskUnits="userSpaceOnUse" x="0" y="0" width="563" height="563">
<path d="M281.21 562.42C436.518 562.42 562.42 436.518 562.42 281.21C562.42 125.902 436.518 0 281.21 0C125.902 0 0 125.902 0 281.21C0 436.518 125.902 562.42 281.21 562.42Z" fill="white"/>
</mask>
<g mask="url(#mask1_311_1902)">
<path d="M201.63 186.43C195.02 178.42 186 178.39 177.56 181.23C178.06 181.92 178.53 182.64 178.96 183.39L179.36 184.09L155.88 276.14C152.08 291.04 157.51 306.75 169.66 316.16C179.57 323.84 192.24 332.26 205.25 337.18L208.99 398.73H297.38V335.42H268.56C266.8 307.27 211.26 198.1 201.63 186.43Z" fill="#EDDDC5"/>
<path d="M165.28 111.39C148.37 107.8 98.8399 109.05 98.8399 109.05C98.8399 109.05 63.0999 176.09 156.22 170.96C163.09 170.58 169.68 173.12 174.51 177.72C186.15 163.77 191.86 149.7 191.86 149.7L165.28 111.39Z" fill="#EDDDC5"/>
<path d="M173.49 151.24L154.07 126.15L104.7 124.53C104.7 124.54 120.08 169.05 173.49 151.24Z" fill="#D3B48C"/>
<path d="M209.83 242.71C209.83 242.71 205.14 218.09 197.52 217.5C189.9 216.91 152.96 217.5 152.96 217.5L162.93 221.02C162.93 221.02 172.9 267.92 209.83 242.71Z" fill="#0F0402"/>
<path d="M226.84 78.55C224.38 71.47 217.62 66.81 210.12 67.02L199.28 66.82L201.56 91.05H231.06C229.34 85.9 227.89 81.58 226.84 78.55Z" fill="#0F0402"/>
<path d="M264.07 175.32C255.49 163.98 239.74 116.94 231.07 91.06H201.57L207.01 148.99C207.01 148.99 182.19 114.97 165.29 111.38L191.87 149.68C191.87 149.68 186.16 163.75 174.52 177.7C175.64 178.76 176.66 179.94 177.57 181.22C186.01 178.38 195.03 178.41 201.64 186.42C211.27 198.09 256.71 305.14 258.46 333.28L297.38 335.4V195.82C297.37 195.82 278.41 194.28 264.07 175.32Z" fill="#C98E5A"/>
<path d="M360.8 186.43C367.41 178.42 376.43 178.39 384.87 181.23C384.37 181.92 383.9 182.64 383.47 183.39L383.07 184.09L406.55 276.14C410.35 291.04 404.92 306.75 392.77 316.16C382.86 323.84 370.19 332.26 357.18 337.18L353.44 398.73H265.05V335.42H293.87C295.63 307.27 351.17 198.1 360.8 186.43Z" fill="#EDDDC5"/>
<path d="M397.15 111.39C414.06 107.8 463.59 109.05 463.59 109.05C463.59 109.05 499.33 176.09 406.21 170.96C399.34 170.58 392.75 173.12 387.92 177.72C376.28 163.77 370.57 149.7 370.57 149.7L397.15 111.39Z" fill="#EDDDC5"/>
<path d="M388.94 151.24L408.36 126.15L457.72 124.53C457.73 124.54 442.35 169.05 388.94 151.24Z" fill="#D3B48C"/>
<path d="M352.59 242.71C352.59 242.71 357.28 218.09 364.9 217.5C372.52 216.91 409.46 217.5 409.46 217.5L399.49 221.02C399.49 221.02 389.53 267.92 352.59 242.71Z" fill="#0F0402"/>
<path d="M335.59 78.55C338.05 71.47 344.81 66.81 352.31 67.02L363.15 66.82L360.87 91.05H331.37C333.09 85.9 334.54 81.58 335.59 78.55Z" fill="#0F0402"/>
<path d="M298.36 175.32C306.94 163.98 322.69 116.94 331.36 91.06H360.86L355.42 148.99C355.42 148.99 380.24 114.97 397.14 111.38L370.56 149.68C370.56 149.68 376.27 163.75 387.91 177.7C386.79 178.76 385.77 179.94 384.86 181.22C376.42 178.38 367.4 178.41 360.79 186.42C351.16 198.09 305.72 305.14 303.97 333.28L265.05 335.4V195.82C265.05 195.82 284.01 194.28 298.36 175.32Z" fill="#C98E5A"/>
<path d="M209.38 450.87C216.46 474.57 236.37 499.11 281.15 501.58V501.59C281.17 501.59 281.19 501.59 281.21 501.59C281.23 501.59 281.25 501.59 281.27 501.59V501.58C326.05 499.11 345.95 474.57 353.04 450.87H209.38Z" fill="#C98E5A"/>
<path d="M351.28 456.03C351.93 454.31 352.52 452.59 353.04 450.87H209.38C209.89 452.59 210.48 454.31 211.14 456.03H351.28Z" fill="#874D26"/>
<path d="M372.75 404.44C368.01 396.54 358.95 394.03 349.48 393.98C333.62 393.89 319.16 341.79 312.26 326.66C304.07 308.71 287.53 305.15 281.3 304.45V304.43C281.28 304.43 281.25 304.44 281.22 304.44C281.2 304.44 281.17 304.43 281.14 304.43V304.45C275.04 305.14 259.1 308.55 250.74 325.47C243.05 341.04 227.95 393.42 211.38 394.02C202.49 394.34 194.16 396.99 189.68 404.45C185.73 411.03 183.55 424.32 186.27 439.2C187.46 445.74 192.89 450.46 199.18 450.46H363.27C369.56 450.46 374.98 445.74 376.18 439.2C378.88 424.31 376.7 411.02 372.75 404.44Z" fill="#B57647"/>
<path d="M325.23 419.53C325.23 424.74 320.66 428.97 315.03 428.97C309.4 428.97 304.83 424.75 304.83 419.53C304.83 414.32 309.4 410.1 315.03 410.1C320.66 410.1 325.23 414.32 325.23 419.53Z" fill="#0F0402"/>
<path d="M259.55 419.53C259.55 424.74 254.98 428.97 249.35 428.97C243.72 428.97 239.15 424.75 239.15 419.53C239.15 414.32 243.72 410.1 249.35 410.1C254.98 410.1 259.55 414.32 259.55 419.53Z" fill="#0F0402"/>
</g>
</g>
<defs>
<clipPath id="clip0_311_1902">
<rect width="562.43" height="562.43" fill="white"/>
</clipPath>
</defs>
</svg>
