<svg width="563" height="563" viewBox="0 0 563 563" fill="none" xmlns="http://www.w3.org/2000/svg">
<mask id="mask0_311_1718" style="mask-type:luminance" maskUnits="userSpaceOnUse" x="0" y="0" width="563" height="563">
<path d="M281.21 562.42C436.518 562.42 562.42 436.518 562.42 281.21C562.42 125.902 436.518 0 281.21 0C125.902 0 0 125.902 0 281.21C0 436.518 125.902 562.42 281.21 562.42Z" fill="white"/>
</mask>
<g mask="url(#mask0_311_1718)">
<path d="M281.21 562.42C436.518 562.42 562.42 436.518 562.42 281.21C562.42 125.902 436.518 0 281.21 0C125.902 0 0 125.902 0 281.21C0 436.518 125.902 562.42 281.21 562.42Z" fill="#D946EF"/>
</g>
<mask id="mask1_311_1718" style="mask-type:luminance" maskUnits="userSpaceOnUse" x="0" y="0" width="563" height="563">
<path d="M281.21 562.42C436.518 562.42 562.42 436.518 562.42 281.21C562.42 125.902 436.518 0 281.21 0C125.902 0 0 125.902 0 281.21C0 436.518 125.902 562.42 281.21 562.42Z" fill="white"/>
</mask>
<g mask="url(#mask1_311_1718)">
<path d="M399.21 451.48C425.43 423.25 456.54 369.66 462.88 330.47C469.22 291.29 467.49 203.7 453.66 168.55C443.66 143.13 398.7 97.83 374.58 74.7C343.27 67.18 304.77 61.64 281.21 60.23C257.7 61.64 219.32 67.15 188.05 74.65C163.94 97.77 118.93 143.11 108.92 168.55C95.09 203.7 93.36 291.29 99.7 330.47C106.04 369.65 137.16 423.24 163.37 451.48C175.52 464.57 201.11 481.12 225.07 495.12C242.47 499.17 261.25 501.76 281.21 502.19C301.28 501.76 320.15 499.13 337.63 495.04C361.55 481.07 387.08 464.55 399.21 451.48Z" fill="#A04B30"/>
<path d="M514.2 239.44C515.35 197.95 441.6 105.76 419.7 90.77C411.23 84.98 394.33 79.44 374.59 74.7C398.71 97.83 443.67 143.13 453.67 168.55C467.5 203.7 469.23 291.29 462.89 330.47C456.55 369.65 425.43 423.24 399.22 451.48C387.09 464.55 361.56 481.07 337.64 495.05C389.71 482.87 429.4 457.65 451.4 438.24C480.78 412.3 513.05 280.92 514.2 239.44Z" fill="#7A311E"/>
<path d="M163.37 451.48C137.15 423.25 106.03 369.66 99.7001 330.47C93.3601 291.29 95.0901 203.7 108.92 168.55C118.93 143.11 163.94 97.76 188.05 74.65C168.21 79.4 151.23 84.96 142.73 90.77C120.83 105.75 47.0801 197.95 48.2301 239.44C49.3801 280.93 81.6501 412.31 111.04 438.24C133.08 457.69 172.87 482.97 225.08 495.13C201.12 481.12 175.53 464.57 163.37 451.48Z" fill="#7A311E"/>
<path d="M433.55 213.73C433.55 213.73 441.41 235.72 442.29 240.72C443.17 245.73 435.3 254.46 426.26 258.05C417.22 261.65 406.6 261.57 406.6 261.57L399.34 246.48L433.55 213.73Z" fill="#7A311E"/>
<path d="M370.98 213.45C370.98 213.45 383.95 221.66 392.88 230.16C401.81 238.66 405.99 253.93 405.99 253.93C405.99 253.93 429.62 246.87 438.11 235.35C446.61 223.83 435.08 197.32 428.46 191.56C421.83 185.8 396.91 182.63 389.13 185.65C381.36 188.67 370.98 213.45 370.98 213.45Z" fill="#FFCC66"/>
<path d="M417.23 223.78C419.71 219.28 421.51 213.61 422.57 209.77C419.35 205.46 415.34 201.08 412.76 200.78C408.53 200.3 394.32 203.95 390.86 207.89C387.4 211.83 381.45 221.43 381.45 221.43C389.28 227.94 393.51 233.85 395.75 237.86C400.58 235.84 413.87 229.87 417.23 223.78Z" fill="#E8AA46"/>
<path d="M427.17 216.81C426.35 215.21 424.62 212.5 422.57 209.76C421.51 213.6 419.7 219.28 417.23 223.77C413.87 229.87 400.58 235.84 395.75 237.85C397.57 241.12 398.07 243.12 398.07 243.12C398.07 243.12 418.33 239.18 420.93 235.82C423.52 232.47 429.28 220.94 427.17 216.81Z" fill="#D39337"/>
<path d="M374.3 214.46C374.3 214.46 364.8 209.75 360.95 208.41C357.11 207.07 343.09 208.89 343.09 208.89C343.09 208.89 363.83 217.63 370.65 221.66C377.47 225.69 387.65 235.11 391.68 240.1C395.71 245.09 399.07 253.28 401.38 258.12C403.68 262.96 405.7 277.75 405.7 277.75C405.7 277.75 409.59 268.89 409.88 265.36C410.17 261.83 409.3 254.94 409.3 254.94C409.3 254.94 405.7 240.68 397.92 231.46C390.15 222.24 374.3 214.46 374.3 214.46Z" fill="#7A311E"/>
<path d="M129.04 213.73C129.04 213.73 121.18 235.72 120.3 240.72C119.42 245.73 127.29 254.46 136.33 258.05C145.37 261.65 155.99 261.57 155.99 261.57L163.25 246.48L129.04 213.73Z" fill="#7A311E"/>
<path d="M191.6 213.45C191.6 213.45 178.63 221.66 169.7 230.16C160.77 238.66 156.59 253.93 156.59 253.93C156.59 253.93 132.96 246.87 124.47 235.35C115.97 223.83 127.5 197.32 134.12 191.56C140.75 185.8 165.67 182.63 173.45 185.65C181.23 188.67 191.6 213.45 191.6 213.45Z" fill="#FFCC66"/>
<path d="M145.35 223.78C142.87 219.28 141.07 213.61 140.01 209.77C143.23 205.46 147.24 201.08 149.82 200.78C154.05 200.3 168.26 203.95 171.72 207.89C175.18 211.83 181.13 221.43 181.13 221.43C173.3 227.94 169.07 233.85 166.83 237.86C162.01 235.84 148.72 229.87 145.35 223.78Z" fill="#E8AA46"/>
<path d="M135.41 216.81C136.23 215.21 137.96 212.5 140.01 209.76C141.07 213.6 142.88 219.28 145.35 223.77C148.71 229.87 162 235.84 166.83 237.85C165.01 241.12 164.51 243.12 164.51 243.12C164.51 243.12 144.25 239.18 141.65 235.82C139.06 232.47 133.3 220.94 135.41 216.81Z" fill="#D39337"/>
<path d="M188.29 214.46C188.29 214.46 197.79 209.75 201.64 208.41C205.48 207.07 219.5 208.89 219.5 208.89C219.5 208.89 198.76 217.63 191.94 221.66C185.12 225.69 174.94 235.11 170.91 240.1C166.88 245.09 163.51 253.28 161.21 258.12C158.91 262.96 156.89 277.75 156.89 277.75C156.89 277.75 153 268.89 152.71 265.36C152.42 261.83 153.29 254.94 153.29 254.94C153.29 254.94 156.89 240.68 164.67 231.46C172.44 222.24 188.29 214.46 188.29 214.46Z" fill="#7A311E"/>
<path d="M383.48 333.1C383.48 333.1 377.9 365.43 369.44 380.6C360.97 395.77 345.07 403.26 345.07 403.26C345.07 403.26 346.93 423.24 331.03 431.11L325.04 382.1L383.48 333.1Z" fill="#7A311E"/>
<path d="M178.95 333.1C178.95 333.1 184.53 365.43 192.99 380.6C201.46 395.77 217.36 403.26 217.36 403.26C217.36 403.26 215.5 423.24 231.4 431.11L237.39 382.1L178.95 333.1Z" fill="#7A311E"/>
<path d="M322.03 221.29C339.29 224.17 362.86 254.61 369.25 271.63C369.27 271.65 369.29 271.67 369.3 271.69C369.3 271.69 365.64 248.63 360.84 240.57C356.04 232.5 326.65 213.56 319.74 213.72C312.83 213.87 281.24 229.05 281.24 229.05C281.24 229.05 281.29 229.04 281.3 229.04C282.13 228.66 305.06 218.46 322.03 221.29Z" fill="#7A311E"/>
<path d="M240.4 221.29C257.37 218.46 280.29 228.65 281.14 229.03C281.15 229.03 281.21 229.04 281.21 229.04C281.21 229.04 249.63 213.86 242.71 213.71C235.8 213.56 206.41 232.49 201.61 240.56C196.81 248.63 193.15 271.68 193.15 271.68C193.17 271.66 193.18 271.65 193.2 271.63C199.56 254.61 223.14 224.16 240.4 221.29Z" fill="#7A311E"/>
<path d="M387.14 322.41C387.14 296.19 369.28 271.7 369.28 271.7C369.27 271.67 369.26 271.64 369.25 271.62C361.15 262.3 350.32 255.82 350.32 255.82C345.57 247.75 325.4 228.88 314.88 227.44C304.52 226.02 281.94 228.94 281.29 229.02C281.27 229.03 281.21 229.05 281.21 229.05C281.21 229.05 281.15 229.02 281.13 229.01C280.43 228.92 257.9 226.01 247.55 227.43C237.03 228.87 216.87 247.74 212.11 255.81C212.11 255.81 201.27 262.28 193.18 271.61C193.17 271.63 193.16 271.66 193.15 271.69C193.15 271.69 175.29 296.18 175.29 322.4C175.29 348.62 228.25 390.68 228.25 390.68C228.25 390.68 223.4 420.93 230.6 434.76C239.16 451.2 281.21 443.69 281.21 443.69C281.21 443.69 323.26 451.2 331.82 434.76C339.02 420.93 334.17 390.68 334.17 390.68C334.17 390.68 387.14 348.63 387.14 322.41Z" fill="#FFCC66"/>
<path d="M314.88 227.45C325.4 228.89 345.56 247.76 350.32 255.83C350.32 255.83 361.15 262.3 369.25 271.63C362.87 254.62 339.29 224.17 322.03 221.29C305.06 218.46 282.13 228.66 281.29 229.03C281.94 228.95 304.51 226.03 314.88 227.45Z" fill="#E8AA46"/>
<path d="M212.11 255.83C216.86 247.76 237.03 228.89 247.55 227.45C257.9 226.03 280.43 228.94 281.13 229.03C280.28 228.65 257.36 218.46 240.39 221.29C223.13 224.17 199.55 254.62 193.17 271.63C201.28 262.3 212.11 255.83 212.11 255.83Z" fill="#E8AA46"/>
<path d="M311.18 266.77C310.31 261.36 317.04 253.72 320.04 252.39C323.04 251.06 335.32 253.37 338.88 256.3C342.44 259.23 340.97 270.54 338.88 274.31C336.79 278.08 327.11 279.68 322.63 278.99C318.16 278.28 311.81 270.68 311.18 266.77Z" fill="#212121"/>
<path d="M332.79 258.13C334.15 258 335.94 259.79 336.22 260.55C336.5 261.31 335.74 264.33 334.96 265.16C334.18 266 331.4 265.46 330.49 264.88C329.59 264.3 329.34 261.88 329.58 260.78C329.82 259.68 331.81 258.22 332.79 258.13Z" fill="white"/>
<path d="M251.82 266.77C252.69 261.36 245.96 253.72 242.96 252.39C239.96 251.06 227.68 253.37 224.12 256.3C220.56 259.23 222.03 270.54 224.12 274.31C226.21 278.08 235.89 279.68 240.37 278.99C244.84 278.28 251.19 270.68 251.82 266.77Z" fill="#212121"/>
<path d="M241.75 258.13C243.11 258 244.9 259.79 245.18 260.55C245.46 261.31 244.7 264.33 243.92 265.16C243.14 266 240.36 265.46 239.45 264.88C238.55 264.3 238.3 261.88 238.54 260.78C238.78 259.68 240.77 258.22 241.75 258.13Z" fill="white"/>
<path d="M319.63 354.49C324.48 344.6 320.97 320.54 319.63 314.49C318.29 308.44 301.57 287.26 301.57 287.26C301.57 287.26 310.36 305.99 313.24 316.36C316.12 326.73 315.26 344.88 311.22 357.13L319.63 354.49Z" fill="#E8AA46"/>
<path d="M242.8 354.49C237.95 344.6 241.46 320.54 242.8 314.49C244.14 308.44 260.85 287.26 260.85 287.26C260.85 287.26 252.06 305.99 249.18 316.36C246.3 326.73 247.16 344.88 251.2 357.13L242.8 354.49Z" fill="#E8AA46"/>
<path d="M304.02 410.43C302.72 411.87 294.68 414.25 291.13 413.53C288.18 412.93 287.02 411.43 284.85 409.37C283.77 401.66 281.22 395.45 281.22 395.45C281.22 395.45 278.67 401.66 277.59 409.37C275.42 411.44 274.26 412.94 271.31 413.53C267.76 414.25 259.71 411.87 258.42 410.43C257.12 408.99 254.24 401.79 254.24 401.79C254.24 401.79 254.46 411.73 255.61 415.19C256.76 418.65 268.57 420.74 270.81 420.74C272.58 420.74 278.77 416.72 281.3 415.02C281.66 415.27 289.47 420.74 291.65 420.74C293.88 420.74 305.7 418.65 306.85 415.19C308 411.73 308.22 401.79 308.22 401.79C308.22 401.79 305.32 408.99 304.02 410.43Z" fill="#E8AA46"/>
<path d="M319.63 354.49C303.3 349.5 281.22 348.15 281.22 348.15C281.22 348.15 259.13 349.5 242.81 354.49C242.81 354.49 246.92 363.62 259.22 374.57C262.11 372.93 267.01 370.39 267.01 370.39C268.14 372.63 271.59 377.01 271.59 377.01C270.94 378.06 269.65 380.32 268.69 382.04C272.39 384.66 276.51 387.28 281.22 389.84C285.93 387.29 290.05 384.66 293.75 382.05C292.78 380.32 291.5 378.06 290.85 377.02C290.85 377.02 294.3 372.65 295.43 370.4C295.43 370.4 300.34 372.94 303.22 374.58C315.52 363.62 319.63 354.49 319.63 354.49Z" fill="#704236"/>
<path d="M290.84 377C291.49 378.05 292.78 380.31 293.74 382.03C297.31 379.5 300.49 376.99 303.21 374.56C300.32 372.92 295.42 370.38 295.42 370.38C294.29 372.63 290.84 377 290.84 377Z" fill="#5B3129"/>
<path d="M267 370.39C267 370.39 262.09 372.93 259.21 374.57C261.93 376.99 265.11 379.51 268.68 382.04C269.65 380.31 270.93 378.05 271.58 377.01C271.59 377 268.13 372.63 267 370.39Z" fill="#5B3129"/>
</g>
</svg>
