<svg width="563" height="563" viewBox="0 0 563 563" fill="none" xmlns="http://www.w3.org/2000/svg">
<g clip-path="url(#clip0_311_1874)">
<mask id="mask0_311_1874" style="mask-type:luminance" maskUnits="userSpaceOnUse" x="0" y="0" width="563" height="563">
<path d="M281.21 562.42C436.518 562.42 562.42 436.518 562.42 281.21C562.42 125.902 436.518 0 281.21 0C125.902 0 0 125.902 0 281.21C0 436.518 125.902 562.42 281.21 562.42Z" fill="white"/>
</mask>
<g mask="url(#mask0_311_1874)">
<path d="M281.21 562.42C436.518 562.42 562.42 436.518 562.42 281.21C562.42 125.902 436.518 0 281.21 0C125.902 0 0 125.902 0 281.21C0 436.518 125.902 562.42 281.21 562.42Z" fill="#22C55E"/>
</g>
<mask id="mask1_311_1874" style="mask-type:luminance" maskUnits="userSpaceOnUse" x="0" y="0" width="563" height="563">
<path d="M281.21 562.42C436.518 562.42 562.42 436.518 562.42 281.21C562.42 125.902 436.518 0 281.21 0C125.902 0 0 125.902 0 281.21C0 436.518 125.902 562.42 281.21 562.42Z" fill="white"/>
</mask>
<g mask="url(#mask1_311_1874)">
<path d="M103.36 316.29C104.88 334.88 113.41 385.44 119.2 398.84C124.99 412.24 166.1 439.95 178.59 448.18C191.08 456.4 281.22 460.06 281.22 460.06C281.22 460.06 371.36 456.41 383.85 448.18C396.34 439.96 437.45 412.24 443.24 398.84C449.03 385.44 457.55 334.89 459.08 316.29C460.6 297.7 443.24 200.27 443.24 200.27L482.84 220.41C480.18 199.73 459.12 147.63 452.5 135.35C445.43 122.23 375.78 92.28 363.67 88.58C361.88 88.03 358.7 87.44 354.77 86.83C332.17 83.31 281.23 79.16 281.23 79.16C281.23 79.16 280.95 79.18 280.49 79.22C280.28 79.24 279.91 79.27 279.6 79.29C279.37 79.31 279.23 79.32 278.95 79.34C268.56 80.21 223 84.12 204.71 87.31C203.84 87.46 203.03 87.61 202.29 87.75C201.91 87.83 201.57 87.9 201.23 87.97C200.28 88.17 199.43 88.37 198.8 88.57H198.79C186.68 92.27 117.02 122.22 109.96 135.34C103.34 147.63 82.2801 199.73 79.6201 220.4L119.22 200.26C119.2 200.27 101.84 297.69 103.36 316.29Z" fill="#EAE9E1"/>
<path d="M83.61 301.29C79.44 314.55 72.73 336.03 69.41 347.52C64.38 364.88 74.89 401.42 82.66 418.33C90.43 435.23 139.76 465.38 153.92 470.41C168.08 475.44 281.22 483.29 281.22 483.29C281.22 483.29 394.36 475.44 408.52 470.41C422.68 465.39 472.02 435.24 479.78 418.33C487.55 401.43 498.05 364.88 493.03 347.52C489.7 336.03 483 314.55 478.83 301.29C481.39 271.02 483.12 234.57 483.12 224.18C483.12 223.09 483.02 221.82 482.84 220.41L443.24 200.27C443.24 200.27 460.6 297.69 459.08 316.29C457.56 334.88 449.03 385.44 443.24 398.84C437.45 412.24 396.34 439.95 383.85 448.18C371.36 456.4 281.22 460.06 281.22 460.06C281.22 460.06 191.08 456.41 178.59 448.18C166.1 439.96 124.99 412.24 119.2 398.84C113.41 385.44 104.89 334.89 103.36 316.29C101.84 297.7 119.2 200.27 119.2 200.27L79.6 220.41C79.42 221.82 79.32 223.09 79.32 224.18C79.32 234.58 81.05 271.02 83.61 301.29Z" fill="#D6D4CC"/>
<path d="M452.49 135.34C445.42 122.22 375.77 92.27 363.66 88.57C361.87 88.02 358.69 87.43 354.76 86.82C332.16 83.3 281.22 79.15 281.22 79.15C281.22 79.15 230.28 83.3 207.68 86.82C203.75 87.43 200.58 88.03 198.78 88.57C186.67 92.27 117.01 122.22 109.95 135.34C102.88 148.46 79.3301 207.01 79.3301 224.17C79.3301 234.57 81.0601 271.01 83.6201 301.28C83.6201 301.28 95.4501 255.46 99.3401 247.24C103.22 239.02 131.09 194.48 140.23 188.54C142.5 187.06 146.59 185.41 151.62 183.75C166.78 178.73 190.47 173.58 198.71 172.55C209.67 171.18 239.14 205.21 243.48 212.06C247.82 218.91 244.17 248.61 241.65 257.51C239.14 266.42 227.52 283.89 227.52 283.89L227.53 283.9H227.52C227.52 283.9 212.19 307.08 209.45 313.25C206.71 319.42 215.42 347.74 218.49 354.36C221.56 360.98 242.46 379.03 250.4 382.45C258.33 385.88 281.25 387.48 281.25 387.48C281.25 387.48 304.16 385.88 312.1 382.45C320.03 379.02 340.94 360.98 344.01 354.36C347.08 347.74 355.79 319.41 353.05 313.25C350.31 307.08 334.98 283.9 334.98 283.9H334.97L334.98 283.89C334.98 283.89 323.36 266.42 320.85 257.51C318.34 248.6 314.68 218.91 319.02 212.06C323.36 205.21 352.82 171.18 363.79 172.55C372.02 173.58 395.72 178.73 410.88 183.75C415.9 185.41 419.99 187.06 422.27 188.54C431.41 194.48 459.27 239.02 463.15 247.24C467.03 255.46 478.87 301.28 478.87 301.28C481.43 271.01 483.16 234.56 483.16 224.17C483.11 207.02 459.55 148.47 452.49 135.34Z" fill="#212121"/>
<path d="M352.14 270.95C350.55 261.07 362.85 247.11 368.33 244.69C373.81 242.27 396.25 246.47 402.75 251.83C409.25 257.18 406.57 277.83 402.75 284.72C398.93 291.6 381.25 294.54 373.07 293.26C364.89 291.99 353.29 278.09 352.14 270.95Z" fill="#212121"/>
<path d="M391.61 255.17C394.09 254.93 397.36 258.19 397.87 259.59C398.39 260.99 396.99 266.49 395.57 268.01C394.14 269.54 389.06 268.55 387.41 267.5C385.76 266.44 385.31 262.02 385.75 260.01C386.2 258 389.82 255.34 391.61 255.17Z" fill="white"/>
<path d="M210.32 270.99C211.91 261.11 199.61 247.15 194.13 244.73C188.65 242.31 166.21 246.51 159.71 251.87C153.21 257.22 155.89 277.87 159.71 284.76C163.53 291.64 181.21 294.58 189.39 293.3C197.57 292.02 209.17 278.13 210.32 270.99Z" fill="#212121"/>
<path d="M191.93 255.2C194.41 254.96 197.68 258.23 198.19 259.62C198.71 261.02 197.31 266.52 195.89 268.04C194.46 269.57 189.38 268.58 187.73 267.53C186.08 266.47 185.63 262.05 186.07 260.04C186.51 258.04 190.14 255.37 191.93 255.2Z" fill="white"/>
<path d="M281.21 352.88C281.2 352.88 260.15 341.67 254.11 336.06C248.07 330.45 227.92 312.23 227.92 312.23C227.92 312.23 250.26 350.05 254.57 354.28C258.87 358.51 281.22 374.41 281.22 374.41C281.22 374.41 303.56 358.51 307.87 354.28C312.17 350.05 334.52 312.23 334.52 312.23C334.52 312.23 314.37 330.45 308.33 336.06C302.27 341.67 281.22 352.87 281.21 352.88Z" fill="#E8AA46"/>
<path d="M281.21 305.56C281.21 305.56 266.76 305.72 259.66 306.54C252.55 307.35 227.92 312.24 227.92 312.24C227.92 312.24 248.07 330.46 254.11 336.07C260.15 341.68 281.2 352.89 281.21 352.89C281.22 352.89 302.27 341.68 308.31 336.07C314.35 330.46 334.5 312.24 334.5 312.24C334.5 312.24 309.87 307.36 302.76 306.54C295.66 305.72 281.21 305.56 281.21 305.56Z" fill="#FFCC66"/>
<path d="M250.67 312.75C250.67 312.75 250.55 315.12 250.67 315.55C250.8 315.98 253.62 318.7 253.62 318.7C253.62 318.7 256.76 319.73 258.26 319.82C258.26 319.82 258.45 317.32 258.26 316.07C258.25 316.07 254.55 314.17 250.67 312.75Z" fill="#E8AA46"/>
<path d="M311.76 312.75C311.76 312.75 311.89 315.12 311.76 315.55C311.63 315.98 308.81 318.7 308.81 318.7C308.81 318.7 305.67 319.73 304.17 319.82C304.17 319.82 303.98 317.32 304.17 316.07C304.17 316.07 307.87 314.17 311.76 312.75Z" fill="#E8AA46"/>
</g>
</g>
<defs>
<clipPath id="clip0_311_1874">
<rect width="562.43" height="562.43" fill="white"/>
</clipPath>
</defs>
</svg>
