<svg width="563" height="563" viewBox="0 0 563 563" fill="none" xmlns="http://www.w3.org/2000/svg">
<mask id="mask0_311_1532" style="mask-type:luminance" maskUnits="userSpaceOnUse" x="0" y="0" width="563" height="563">
<path d="M281.21 562.42C436.518 562.42 562.42 436.518 562.42 281.21C562.42 125.902 436.518 0 281.21 0C125.902 0 0 125.902 0 281.21C0 436.518 125.902 562.42 281.21 562.42Z" fill="white"/>
</mask>
<g mask="url(#mask0_311_1532)">
<path d="M281.21 562.42C436.518 562.42 562.42 436.518 562.42 281.21C562.42 125.902 436.518 0 281.21 0C125.902 0 0 125.902 0 281.21C0 436.518 125.902 562.42 281.21 562.42Z" fill="#3B82F6"/>
</g>
<mask id="mask1_311_1532" style="mask-type:luminance" maskUnits="userSpaceOnUse" x="0" y="0" width="563" height="563">
<path d="M281.21 562.42C436.518 562.42 562.42 436.518 562.42 281.21C562.42 125.902 436.518 0 281.21 0C125.902 0 0 125.902 0 281.21C0 436.518 125.902 562.42 281.21 562.42Z" fill="white"/>
</mask>
<g mask="url(#mask1_311_1532)">
<path d="M525.96 345.91C520.56 347.26 500.71 348.99 500.71 348.99C500.71 348.99 496.28 366.65 492.16 373.85C488.05 381.05 474.63 395.76 474.63 395.76C488.76 391.38 502.12 386.37 505.14 382.34C512.08 373.09 525.96 345.91 525.96 345.91Z" fill="#FFDEA4"/>
<path d="M61.71 349H61.7C61.39 348.97 41.83 347.26 36.48 345.92C36.48 345.92 50.36 373.1 57.3 382.35C60.32 386.38 73.67 391.39 87.79 395.77C87.76 395.73 74.37 381.05 70.27 373.87C66.14 366.66 61.71 349 61.71 349Z" fill="#FFDEA4"/>
<path d="M436.71 406.06C436.71 406.06 436.95 406 437.4 405.9C434.5 403.77 417.45 391.26 413.58 387.56C409.34 383.51 393.92 347.85 393.92 347.85C393.92 347.85 417.82 369.42 429.39 377.05C432.49 379.09 437.96 381.65 444.3 384.31C448.2 370.89 452.86 354.68 455.16 345.93C456.43 341.11 457.27 335.25 457.87 328.89C454.78 327.67 452.09 326.72 450.22 326.27C438.85 323.57 403.96 317.98 403.96 317.98C403.96 317.98 440.2 312 450.61 312.39C452.43 312.46 455.32 312.67 458.83 312.98C459.19 301.38 459.01 289.11 458.77 277.98C458.71 275.14 458.33 271.76 457.73 268.03C440 272.51 403.96 285.65 403.96 285.65C403.96 285.65 431.09 259.85 441.05 253.91C443.61 252.39 448.1 250.26 453.35 247.93C447.04 223.48 437.49 196.63 437.33 196.17C418.24 174.5 396.14 154.61 376.33 145.32C334.69 125.79 281.23 122.7 281.23 122.7C281.23 122.7 227.77 125.78 186.13 145.32C166.33 154.61 144.26 174.47 125.18 196.11H126.18C126.18 196.11 116.38 223.58 110.02 248.35C114.85 250.5 118.98 252.47 121.38 253.9C131.34 259.84 158.47 285.64 158.47 285.64C158.47 285.64 123.77 273 105.72 268.29C105.15 271.91 104.78 275.21 104.72 277.97C104.47 289.07 104.3 301.3 104.65 312.88C107.67 312.62 110.19 312.44 111.82 312.38C122.23 311.99 158.47 317.97 158.47 317.97C158.47 317.97 123.58 323.56 112.21 326.26C110.54 326.66 108.23 327.46 105.58 328.48C106.18 334.99 107.03 341 108.32 345.92C110.6 354.58 115.18 370.56 119.06 383.91C125 381.4 130.08 378.99 133.03 377.05C144.6 369.43 168.5 347.85 168.5 347.85C168.5 347.85 153.08 383.51 148.84 387.56C145.08 391.15 129.03 402.96 125.42 405.61C125.49 405.84 125.51 405.92 125.54 406.02C125.67 406.05 125.74 406.07 125.74 406.07C125.74 406.07 125.65 406.08 125.57 406.1C125.58 406.13 125.61 406.25 125.61 406.25H124.58C120.04 406.94 102.99 409.51 94.51 410.51C94.51 410.51 115.04 431.37 123.17 436.28C130.94 440.97 198.48 459.67 281.24 459.67C364 459.67 431.53 440.97 439.31 436.28C447.44 431.38 467.97 410.51 467.97 410.51C459.49 409.51 442.44 406.94 437.9 406.25C437.14 406.12 436.71 406.06 436.71 406.06Z" fill="#FFCC66"/>
<path d="M458.81 312.97C469.35 313.9 485.57 315.67 495.95 316.84C492.97 299.83 488.57 279.42 482.77 264.09C473.43 265.11 464.35 266.37 458.36 267.85C458.15 267.9 457.91 267.97 457.7 268.02C458.3 271.75 458.68 275.13 458.74 277.97C458.99 289.09 459.17 301.36 458.81 312.97Z" fill="#FFDEA4"/>
<path d="M470.7 240.6C462.19 226.85 450.46 211.09 437.31 196.16C437.47 196.62 447.03 223.47 453.33 247.92C458.73 245.54 464.93 242.95 470.7 240.6Z" fill="#FFDEA4"/>
<path d="M444.29 384.29C454.16 388.42 466.13 392.78 474.63 395.76C474.63 395.76 488.05 381.05 492.16 373.85C496.27 366.65 500.71 348.99 500.71 348.99C500.71 348.99 473.49 335.05 457.86 328.86C457.26 335.22 456.42 341.08 455.15 345.9C452.85 354.66 448.2 370.87 444.29 384.29Z" fill="#FFDEA4"/>
<path d="M125.54 406.08C125.37 406.11 125.04 406.16 124.55 406.23H125.58C125.59 406.23 125.55 406.11 125.54 406.08Z" fill="#FFCC66"/>
<path d="M110.01 248.35C116.37 223.58 126.17 196.11 126.17 196.11H125.17C112 211.06 100.24 226.85 91.72 240.62C97.83 243.1 104.4 245.85 110.01 248.35Z" fill="#FFDEA4"/>
<path d="M79.65 264.08C73.85 279.41 69.45 299.82 66.47 316.82C77.22 315.61 94.17 313.76 104.64 312.87C104.29 301.29 104.46 289.06 104.71 277.96C104.77 275.19 105.14 271.9 105.71 268.28C105.15 268.13 104.56 267.97 104.03 267.84C98.05 266.36 88.98 265.11 79.65 264.08Z" fill="#FFDEA4"/>
<path d="M61.72 349C61.72 349 61.71 349 61.7 349C61.7 349 66.13 366.66 70.25 373.86C74.36 381.05 87.7399 395.73 87.7699 395.76H87.7799C96.5399 392.68 109.02 388.14 119.05 383.9C115.17 370.55 110.58 354.58 108.31 345.91C107.02 340.99 106.16 334.98 105.57 328.47C90.2199 334.4 61.9799 348.85 61.7299 348.98L61.72 349Z" fill="#FFDEA4"/>
<path d="M125.52 406.01C125.49 405.91 125.47 405.83 125.4 405.6C125.29 405.68 125.09 405.83 125.01 405.89C125.23 405.94 125.4 405.98 125.52 406.01Z" fill="#FFCC66"/>
<path d="M403.94 285.64C403.94 285.64 440.87 272.18 458.37 267.85C464.36 266.37 473.44 265.11 482.78 264.09C482.59 263.58 482.4 263.02 482.21 262.52C479.79 256.37 475.8 248.84 470.71 240.61C459.33 245.25 446.23 250.81 441.04 253.9C431.07 259.84 403.94 285.64 403.94 285.64Z" fill="#212121"/>
<path d="M403.94 317.96C403.94 317.96 438.83 323.55 450.2 326.25C461.57 328.95 500.7 349 500.7 349C500.7 349 499.11 334.86 495.95 316.83C482.1 315.28 457.88 312.64 450.58 312.37C440.18 311.99 403.94 317.96 403.94 317.96Z" fill="#212121"/>
<path d="M393.91 347.84C393.91 347.84 409.33 383.5 413.57 387.55C417.45 391.25 434.49 403.76 437.39 405.89C441.02 405.02 458.33 400.82 474.62 395.77C460.67 390.86 437.3 382.26 429.37 377.04C417.82 369.42 393.91 347.84 393.91 347.84Z" fill="#212121"/>
<path d="M158.46 285.64C158.46 285.64 131.33 259.84 121.37 253.9C116.19 250.81 103.1 245.25 91.7199 240.61C86.6299 248.84 82.6399 256.36 80.2199 262.51C80.0199 263.01 79.8399 263.57 79.6499 264.08C88.9799 265.1 98.0499 266.36 104.03 267.84C121.53 272.17 158.46 285.64 158.46 285.64Z" fill="#212121"/>
<path d="M112.2 326.25C123.57 323.55 158.46 317.96 158.46 317.96C158.46 317.96 122.22 311.98 111.81 312.37C104.52 312.64 80.32 315.27 66.47 316.83C63.32 334.8 61.73 348.91 61.72 348.99C62.02 348.83 100.87 328.94 112.2 326.25Z" fill="#212121"/>
<path d="M168.48 347.84C168.48 347.84 144.58 369.41 133.01 377.04C125.09 382.26 101.73 390.86 87.78 395.77C104.05 400.81 121.34 405.02 125 405.89C127.92 403.75 144.94 391.25 148.82 387.55C153.06 383.5 168.48 347.84 168.48 347.84Z" fill="#212121"/>
<path d="M337.54 228.13C336.28 220.28 346.05 209.19 350.4 207.27C354.75 205.35 372.58 208.69 377.74 212.94C382.9 217.19 380.78 233.6 377.74 239.07C374.7 244.54 360.66 246.87 354.16 245.85C347.67 244.84 338.46 233.8 337.54 228.13Z" fill="#212121"/>
<path d="M368.9 215.59C370.87 215.4 373.46 217.99 373.87 219.1C374.28 220.21 373.17 224.58 372.04 225.79C370.9 227.01 366.87 226.22 365.56 225.38C364.25 224.54 363.89 221.02 364.24 219.43C364.6 217.85 367.48 215.73 368.9 215.59Z" fill="white"/>
<path d="M224.88 228.16C226.14 220.31 216.37 209.22 212.02 207.3C207.67 205.38 189.84 208.72 184.68 212.97C179.52 217.22 181.64 233.63 184.68 239.1C187.72 244.57 201.76 246.9 208.26 245.88C214.76 244.87 223.97 233.83 224.88 228.16Z" fill="#212121"/>
<path d="M210.27 215.62C212.24 215.43 214.83 218.02 215.24 219.13C215.65 220.24 214.54 224.61 213.41 225.82C212.28 227.03 208.24 226.25 206.93 225.41C205.62 224.57 205.26 221.05 205.61 219.46C205.97 217.87 208.85 215.76 210.27 215.62Z" fill="white"/>
<path d="M311.73 409.02C309.99 410.95 299.23 414.13 294.48 413.16C290.53 412.36 288.98 410.36 286.07 407.59C284.62 397.28 281.21 388.97 281.21 388.97C281.21 388.97 277.79 397.28 276.35 407.59C273.45 410.36 271.89 412.36 267.94 413.16C263.19 414.12 252.42 410.94 250.69 409.02C248.96 407.09 245.1 397.45 245.1 397.45C245.1 397.45 245.39 410.75 246.93 415.38C248.47 420.01 264.28 422.8 267.27 422.8C269.64 422.8 277.92 417.41 281.3 415.15C281.79 415.49 292.24 422.8 295.15 422.8C298.14 422.8 313.94 420 315.49 415.38C317.03 410.75 317.32 397.45 317.32 397.45C317.32 397.45 313.47 407.09 311.73 409.02Z" fill="#E8AA46"/>
<path d="M346.11 328.37C346.11 328.37 348.04 292.32 347.07 280.76C346.11 269.19 319.7 226.4 319.7 226.4C319.7 226.4 335.31 267.46 337.24 280.18C339.17 292.9 333.52 329.53 333.52 329.53L346.11 328.37Z" fill="#E8AA46"/>
<path d="M216.39 328.37C216.39 328.37 214.46 292.32 215.43 280.76C216.39 269.19 242.8 226.4 242.8 226.4C242.8 226.4 227.19 267.46 225.26 280.18C223.33 292.9 228.98 329.53 228.98 329.53L216.39 328.37Z" fill="#E8AA46"/>
<path d="M319.12 316.42C302.54 314.11 281.21 313.91 281.21 313.91C281.21 313.91 259.88 314.1 243.3 316.42C226.72 318.73 216.31 328.37 216.31 328.37C216.31 328.37 230.19 348.8 238.09 358.06C239.03 359.16 240.38 360.31 241.99 361.47C246.61 358.3 250.88 354.1 250.88 354.1C252.81 355.83 259.65 359.11 259.65 359.11C258.96 361.91 257.44 366.58 256.45 369.55C268.37 375.17 281.21 379.71 281.21 379.71C281.21 379.71 294.05 375.18 305.97 369.55C304.97 366.58 303.45 361.91 302.77 359.11C302.77 359.11 309.61 355.83 311.54 354.1C311.54 354.1 315.81 358.3 320.43 361.47C322.04 360.31 323.39 359.16 324.33 358.06C332.23 348.81 346.11 328.37 346.11 328.37C346.11 328.37 335.7 318.73 319.12 316.42Z" fill="#704236"/>
<path d="M302.77 359.11C303.46 361.91 304.98 366.58 305.97 369.55C311.43 366.97 316.68 364.17 320.42 361.47C315.8 358.3 311.53 354.1 311.53 354.1C309.61 355.83 302.77 359.11 302.77 359.11Z" fill="#5B3129"/>
<path d="M250.88 354.1C250.88 354.1 246.62 358.3 241.99 361.47C245.73 364.18 250.98 366.98 256.44 369.55C257.44 366.58 258.96 361.91 259.64 359.11C259.65 359.11 252.81 355.83 250.88 354.1Z" fill="#5B3129"/>
<path d="M370.37 161.55C370.37 161.55 368.65 139.25 370.4 130.74C372.15 122.24 395.9 104.58 408.06 102.88C420.22 101.18 450.79 124.21 457.31 130.63C463.84 137.05 466.33 169.69 460.93 180.85C455.53 192.01 406.93 200.21 406.93 200.21C406.93 200.21 391.73 182.45 370.37 161.55Z" fill="#FFCC66"/>
<path d="M431.23 153.69C431.49 148.58 431.18 140.21 430.94 135.14C426.44 131.38 422 128.17 420.45 127.37C417.01 125.59 406.45 126.37 401.23 127.37C396.01 128.37 388.56 140.37 387.67 156.82C387.67 156.82 398.33 165.22 406.87 173.78C412.18 172.79 417.39 171.58 419.03 170.39C422.75 167.7 430.84 161.4 431.23 153.69Z" fill="#E8AA46"/>
<path d="M442.44 148.04C442.01 145.17 436.44 139.74 430.93 135.14C431.17 140.21 431.48 148.58 431.22 153.69C430.83 161.4 422.74 167.7 419.01 170.4C417.37 171.59 412.16 172.8 406.85 173.79C408.84 175.79 410.72 177.8 412.32 179.72C412.32 179.72 427.1 177.5 434.32 174.61C441.56 171.71 443.22 153.26 442.44 148.04Z" fill="#D39337"/>
<path d="M192.05 161.55C192.05 161.55 193.77 139.25 192.02 130.74C190.27 122.24 166.52 104.58 154.36 102.88C142.2 101.18 111.63 124.21 105.11 130.63C98.58 137.05 96.09 169.69 101.49 180.85C106.89 192.01 155.49 200.21 155.49 200.21C155.49 200.21 170.69 182.45 192.05 161.55Z" fill="#FFCC66"/>
<path d="M131.2 153.69C130.94 148.58 131.25 140.21 131.49 135.14C135.99 131.38 140.44 128.17 141.98 127.37C145.42 125.59 155.98 126.37 161.2 127.37C166.42 128.37 173.87 140.37 174.76 156.82C174.76 156.82 164.1 165.22 155.56 173.78C150.25 172.79 145.04 171.58 143.4 170.39C139.68 167.7 131.58 161.4 131.2 153.69Z" fill="#E8AA46"/>
<path d="M119.98 148.04C120.41 145.17 125.98 139.74 131.49 135.14C131.25 140.21 130.94 148.58 131.2 153.69C131.59 161.4 139.68 167.7 143.41 170.4C145.05 171.59 150.26 172.8 155.57 173.79C153.58 175.79 151.7 177.8 150.1 179.72C150.1 179.72 135.32 177.5 128.1 174.61C120.87 171.71 119.2 153.26 119.98 148.04Z" fill="#D39337"/>
</g>
</svg>
