<svg width="563" height="563" viewBox="0 0 563 563" fill="none" xmlns="http://www.w3.org/2000/svg">
<g clip-path="url(#clip0_311_1769)">
<mask id="mask0_311_1769" style="mask-type:luminance" maskUnits="userSpaceOnUse" x="0" y="0" width="563" height="563">
<path d="M281.21 562.42C436.518 562.42 562.42 436.518 562.42 281.21C562.42 125.902 436.518 0 281.21 0C125.902 0 0 125.902 0 281.21C0 436.518 125.902 562.42 281.21 562.42Z" fill="white"/>
</mask>
<g mask="url(#mask0_311_1769)">
<path d="M281.21 562.42C436.518 562.42 562.42 436.518 562.42 281.21C562.42 125.902 436.518 0 281.21 0C125.902 0 0 125.902 0 281.21C0 436.518 125.902 562.42 281.21 562.42Z" fill="#3B82F6"/>
</g>
<mask id="mask1_311_1769" style="mask-type:luminance" maskUnits="userSpaceOnUse" x="0" y="0" width="563" height="563">
<path d="M281.21 562.42C436.518 562.42 562.42 436.518 562.42 281.21C562.42 125.902 436.518 0 281.21 0C125.902 0 0 125.902 0 281.21C0 436.518 125.902 562.42 281.21 562.42Z" fill="white"/>
</mask>
<g mask="url(#mask1_311_1769)">
<path d="M424.21 266.49C421.52 256.47 407.11 212.01 394.89 206.26C382.67 200.52 344.31 186.84 344.31 186.84C344.31 186.84 335.76 195.64 327.45 198.08C319.14 200.52 281.2 206.26 281.2 206.26C281.2 206.26 243.26 200.52 234.95 198.08C226.64 195.64 218.09 186.84 218.09 186.84C218.09 186.84 179.73 200.52 167.52 206.26C155.3 212 140.89 256.47 138.2 266.49C135.51 276.51 133.56 322.44 133.56 330.26C133.56 335.49 141.75 372.69 147.17 396.79C164.62 418.76 188.69 445.59 199.4 451.03C216.41 459.67 281.2 480.46 281.2 480.46C281.2 480.46 345.99 459.67 363 451.03C373.71 445.59 397.78 418.76 415.23 396.79C420.66 372.69 428.84 335.49 428.84 330.26C428.86 322.44 426.9 276.5 424.21 266.49Z" fill="#EAE9E1"/>
<path d="M443.18 272.59C443.18 258.82 424.28 211.85 418.61 201.32C412.94 190.79 357.06 166.77 347.34 163.8C337.62 160.83 281.2 156.24 281.2 156.24C281.2 156.24 224.78 160.83 215.06 163.8C205.34 166.77 149.46 190.79 143.79 201.32C138.12 211.85 119.22 258.82 119.22 272.59C119.22 286.36 123 357.08 127.32 368.42C128.92 372.62 136.9 383.86 147.16 396.78C141.73 372.68 133.55 335.48 133.55 330.25C133.55 322.43 135.5 276.5 138.19 266.48C140.88 256.46 155.29 212 167.51 206.25C179.73 200.51 218.08 186.83 218.08 186.83C218.08 186.83 226.63 195.63 234.94 198.07C243.25 200.51 281.19 206.25 281.19 206.25C281.19 206.25 319.13 200.51 327.44 198.07C335.75 195.63 344.3 186.83 344.3 186.83C344.3 186.83 382.66 200.51 394.88 206.25C407.1 211.99 421.51 256.46 424.2 266.48C426.89 276.5 428.84 322.43 428.84 330.25C428.84 335.48 420.65 372.68 415.23 396.78C425.49 383.86 433.47 372.62 435.07 368.42C439.4 357.08 443.18 286.35 443.18 272.59Z" fill="#D8D6CE"/>
<path d="M334.78 295.58C333.58 288.12 342.87 277.58 347.01 275.75C351.15 273.92 368.09 277.1 373 281.14C377.91 285.18 375.89 300.78 373 305.97C370.11 311.17 356.77 313.38 350.59 312.42C344.4 311.46 335.64 300.97 334.78 295.58Z" fill="#212121"/>
<path d="M364.58 283.66C366.45 283.48 368.92 285.94 369.31 287C369.7 288.05 368.65 292.21 367.57 293.36C366.49 294.51 362.66 293.77 361.41 292.97C360.17 292.17 359.82 288.83 360.16 287.31C360.49 285.8 363.23 283.79 364.58 283.66Z" fill="white"/>
<path d="M227.68 295.6C228.88 288.14 219.59 277.6 215.45 275.77C211.31 273.94 194.37 277.12 189.46 281.16C184.55 285.2 186.57 300.8 189.46 306C192.35 311.2 205.69 313.41 211.87 312.45C218.05 311.49 226.81 300.99 227.68 295.6Z" fill="#212121"/>
<path d="M213.79 283.68C215.66 283.5 218.13 285.97 218.52 287.02C218.91 288.08 217.86 292.23 216.78 293.38C215.7 294.53 211.87 293.79 210.62 292.99C209.38 292.19 209.03 288.85 209.37 287.33C209.7 285.83 212.44 283.81 213.79 283.68Z" fill="white"/>
<path d="M324.34 113.92C324.34 109.26 310.17 76.06 310.17 76.06C310.17 76.06 310.37 53.18 310.57 49.13C310.77 45.08 281.21 27.06 281.21 27.06C281.21 27.06 251.65 45.08 251.85 49.13C252.05 53.18 252.26 76.06 252.26 76.06C252.26 76.06 238.09 109.26 238.09 113.92C238.09 118.58 243.56 138.82 243.56 138.82C243.56 138.82 241.54 175.67 243.56 184.98C245.59 194.29 261.78 231.01 261.78 231.01C268.46 238.57 281.22 247.34 281.22 247.34C281.22 247.34 293.98 238.57 300.66 231.01C300.66 231.01 316.86 194.3 318.88 184.98C320.9 175.67 318.88 138.82 318.88 138.82C318.88 138.82 324.34 118.58 324.34 113.92Z" fill="#E02828"/>
<path d="M308.89 113.92C308.89 109.26 299.79 76.06 299.79 76.06C299.79 76.06 299.92 53.18 300.05 49.13C300.18 45.08 281.21 27.06 281.21 27.06C281.21 27.06 262.24 45.08 262.37 49.13C262.5 53.18 262.63 76.06 262.63 76.06C262.63 76.06 253.53 109.26 253.53 113.92C253.53 118.58 257.04 138.82 257.04 138.82C257.04 138.82 255.74 175.67 257.04 184.98C258.34 194.29 268.74 231.01 268.74 231.01C273.03 238.57 281.22 247.34 281.22 247.34C281.22 247.34 289.41 238.57 293.7 231.01C293.7 231.01 304.1 194.3 305.4 184.98C306.7 175.67 305.4 138.82 305.4 138.82C305.4 138.82 308.89 118.58 308.89 113.92Z" fill="#F73C3C"/>
<path d="M281.21 384.57C281.21 384.57 264.18 371.38 259.29 364.78C254.4 358.18 238.11 336.74 238.11 336.74C238.11 336.74 256.18 381.24 259.66 386.22C263.14 391.2 281.21 409.91 281.21 409.91C281.21 409.91 299.28 391.2 302.76 386.22C306.24 381.24 324.31 336.74 324.31 336.74C324.31 336.74 308.01 358.18 303.13 364.78C298.24 371.38 281.22 384.57 281.21 384.57Z" fill="#E8AA46"/>
<path d="M281.21 328.89C281.21 328.89 269.53 329.08 263.78 330.04C258.03 331 238.11 336.74 238.11 336.74C238.11 336.74 254.41 358.18 259.29 364.78C264.18 371.38 281.2 384.57 281.21 384.57C281.21 384.57 298.24 371.38 303.13 364.78C308.02 358.18 324.31 336.74 324.31 336.74C324.31 336.74 304.39 330.99 298.64 330.04C292.9 329.08 281.21 328.89 281.21 328.89Z" fill="#FFCC66"/>
<path d="M256.51 337.35C256.51 337.35 256.41 340.14 256.51 340.65C256.61 341.16 258.89 344.35 258.89 344.35C258.89 344.35 261.43 345.57 262.64 345.67C262.64 345.67 262.79 342.73 262.64 341.26C262.65 341.26 259.65 339.03 256.51 337.35Z" fill="#E8AA46"/>
<path d="M305.92 337.35C305.92 337.35 306.02 340.14 305.92 340.65C305.82 341.16 303.54 344.35 303.54 344.35C303.54 344.35 301 345.57 299.79 345.67C299.79 345.67 299.64 342.73 299.79 341.26C299.78 341.26 302.77 339.03 305.92 337.35Z" fill="#E8AA46"/>
<path d="M306.88 490.65C305.78 483.87 304.31 459.13 299 452.17C293.69 445.21 281.21 430.67 281.21 430.67C281.21 430.67 268.74 445.21 263.42 452.17C258.11 459.13 256.64 483.87 255.54 490.65C254.44 497.43 260.49 514.1 262.5 517.04C264.52 519.97 281.2 535.36 281.2 535.36C281.2 535.36 297.89 519.97 299.9 517.04C301.93 514.11 307.98 497.43 306.88 490.65Z" fill="#F73C3C"/>
</g>
</g>
<defs>
<clipPath id="clip0_311_1769">
<rect width="562.43" height="562.43" fill="white"/>
</clipPath>
</defs>
</svg>
