<svg width="563" height="563" viewBox="0 0 563 563" fill="none" xmlns="http://www.w3.org/2000/svg">
<g clip-path="url(#clip0_311_1799)">
<mask id="mask0_311_1799" style="mask-type:luminance" maskUnits="userSpaceOnUse" x="0" y="0" width="563" height="563">
<path d="M281.21 562.42C436.518 562.42 562.42 436.518 562.42 281.21C562.42 125.902 436.518 0 281.21 0C125.902 0 0 125.902 0 281.21C0 436.518 125.902 562.42 281.21 562.42Z" fill="white"/>
</mask>
<g mask="url(#mask0_311_1799)">
<path d="M281.21 562.42C436.518 562.42 562.42 436.518 562.42 281.21C562.42 125.902 436.518 0 281.21 0C125.902 0 0 125.902 0 281.21C0 436.518 125.902 562.42 281.21 562.42Z" fill="#EAB308"/>
</g>
<mask id="mask1_311_1799" style="mask-type:luminance" maskUnits="userSpaceOnUse" x="0" y="0" width="563" height="563">
<path d="M281.21 562.42C436.518 562.42 562.42 436.518 562.42 281.21C562.42 125.902 436.518 0 281.21 0C125.902 0 0 125.902 0 281.21C0 436.518 125.902 562.42 281.21 562.42Z" fill="white"/>
</mask>
<g mask="url(#mask1_311_1799)">
<path d="M279.67 461.52L217.57 467.12C217.57 467.12 219.06 481.6 220.05 484.86C221.04 488.11 229.86 495.53 233.17 496.93C236.48 498.33 258.31 497.49 262.94 496.93C267.57 496.37 279.67 493.71 279.67 493.71C279.67 493.71 291.77 496.37 296.4 496.93C301.03 497.49 322.86 498.33 326.17 496.93C329.48 495.53 338.3 488.11 339.29 484.86C340.28 481.61 341.77 467.12 341.77 467.12L279.67 461.52Z" fill="#704236"/>
<path d="M206.94 210.59C206.94 210.59 159.96 168.55 148.13 160.87C136.3 153.2 85.84 132.09 68.44 127.62C68.44 127.62 56.96 165.99 55.91 180.69C54.87 195.4 79.57 247.83 89.32 259.02C99.06 270.21 131.41 295.79 131.41 295.79L206.94 210.59Z" fill="#5B3129"/>
<path d="M128.13 209.93C124.02 199.92 113.54 184.82 108.81 178.4C104.08 171.98 79.8401 151.28 79.8401 151.28C79.8401 151.28 73.8201 180.24 73.8201 185.53C73.8201 190.82 86.1701 225.07 89.7201 231.14C93.2701 237.21 140.67 282.2 140.67 282.2L167.22 253.58L136.34 252.78C136.35 252.78 132.24 219.93 128.13 209.93Z" fill="#D3C2AE"/>
<path d="M147.16 195.18C141.29 183.97 110.42 162.8 102.7 159.37C94.9801 155.94 79.8501 151.27 79.8501 151.27C79.8501 151.27 104.09 171.97 108.82 178.39C113.55 184.81 124.03 199.91 128.14 209.92C132.25 219.93 136.36 252.77 136.36 252.77L167.24 253.57L169.71 250.9C169.7 250.91 153.03 206.39 147.16 195.18Z" fill="#BCA48E"/>
<path d="M353.04 201.88C353.04 201.88 404.56 165.53 417.19 159.28C429.83 153.02 482.38 137.88 500.19 135.44C500.19 135.44 507.17 174.87 506.52 189.6C505.86 204.33 475.27 253.57 464.3 263.56C453.33 273.55 418.25 295.23 418.25 295.23L353.04 201.88Z" fill="#5B3129"/>
<path d="M431.39 210.31C436.63 200.85 448.78 187.05 454.21 181.22C459.64 175.39 486.11 157.62 486.11 157.62C486.11 157.62 488.75 187.08 488.14 192.34C487.53 197.6 471.31 230.19 467.08 235.82C462.85 241.44 410.58 280.67 410.58 280.67L387.51 249.18L418.27 251.94C418.29 251.93 426.16 219.78 431.39 210.31Z" fill="#D3C2AE"/>
<path d="M414.19 193.47C421.31 183.01 454.42 165.54 462.49 163.03C470.55 160.52 486.12 157.62 486.12 157.62C486.12 157.62 459.65 175.39 454.22 181.22C448.79 187.05 436.63 200.84 431.4 210.31C426.16 219.77 418.29 251.93 418.29 251.93L387.53 249.17L385.38 246.23C385.37 246.23 407.07 203.93 414.19 193.47Z" fill="#BCA48E"/>
<path d="M443.37 323.09C440.81 309.86 425.78 234.12 415.87 224.53C405.99 214.97 369.1 178.46 349.23 174.31C349.17 174.3 349.1 174.27 349.05 174.26C329.23 170.29 279.67 164.01 279.67 164.01C279.67 164.01 230.11 170.29 210.29 174.26C210.23 174.27 210.17 174.3 210.11 174.31C190.24 178.46 153.35 214.97 143.47 224.53C133.56 234.12 118.53 309.86 115.97 323.09C113.41 336.32 132.6 389.24 135.79 403.95C138.99 418.67 175.3 447.41 194.55 458.01C213.8 468.61 279.66 480.85 279.66 480.85C279.66 480.85 345.52 468.61 364.77 458.01C384.02 447.41 420.33 418.67 423.53 403.95C426.74 389.24 445.93 336.32 443.37 323.09Z" fill="#704236"/>
<path d="M358.38 390.93C358.38 390.93 341.15 354.51 336.32 348.84C331.49 343.17 314.47 328.25 311.74 326.36C309.01 324.47 288.35 320.48 279.67 320.48C270.99 320.48 250.33 324.47 247.6 326.36C244.87 328.25 227.85 343.17 223.02 348.84C218.19 354.51 200.96 390.93 200.96 390.93C200.96 397.72 207.89 420.06 207.26 426.15C206.63 432.24 203.27 452.83 206.42 457.66C209.57 462.49 227.85 476.88 231.42 476.78C234.99 476.68 253.16 472.58 258 471.32C262.83 470.06 279.67 468.24 279.67 468.24C279.67 468.24 296.51 470.06 301.34 471.32C306.17 472.58 324.34 476.68 327.92 476.78C331.49 476.89 349.77 462.49 352.92 457.66C356.07 452.83 352.71 432.24 352.08 426.15C351.45 420.06 358.38 397.72 358.38 390.93Z" fill="#5B3129"/>
<path d="M334.84 302.87C333.6 295.18 343.17 284.33 347.43 282.44C351.69 280.56 369.15 283.83 374.21 287.99C379.27 292.16 377.19 308.22 374.21 313.58C371.24 318.94 357.49 321.22 351.12 320.22C344.75 319.24 335.73 308.43 334.84 302.87Z" fill="#212121"/>
<path d="M365.54 290.59C367.47 290.4 370.01 292.94 370.41 294.03C370.81 295.12 369.73 299.4 368.62 300.58C367.51 301.77 363.56 301 362.27 300.18C360.99 299.36 360.64 295.91 360.98 294.35C361.33 292.8 364.15 290.73 365.54 290.59Z" fill="white"/>
<path d="M224.5 302.9C225.74 295.21 216.17 284.35 211.91 282.47C207.65 280.59 190.19 283.86 185.13 288.02C180.07 292.18 182.16 308.25 185.13 313.61C188.11 318.96 201.85 321.25 208.22 320.25C214.59 319.26 223.61 308.45 224.5 302.9Z" fill="#212121"/>
<path d="M210.19 290.62C212.12 290.43 214.66 292.97 215.06 294.06C215.46 295.15 214.38 299.42 213.27 300.61C212.16 301.8 208.21 301.03 206.92 300.21C205.64 299.39 205.29 295.94 205.63 294.38C205.98 292.82 208.8 290.75 210.19 290.62Z" fill="white"/>
<path d="M305.61 379.44C298.94 376.64 279.67 375.24 279.67 375.24C279.67 375.24 260.4 376.64 253.73 379.44C247.06 382.24 236.86 394.64 236.86 394.64C236.86 394.64 238.75 407.46 240.54 409.77C241.43 410.92 244.76 414.86 248.23 418.64C249.67 416.26 251.59 413.18 252.2 412.77C253.21 412.08 258.86 410.28 258.86 410.28C260.09 412.96 264.96 421.61 264.96 421.61L263.26 428C270.11 429.33 279.67 430.99 279.67 430.99C279.67 430.99 289.23 429.34 296.08 428L294.38 421.61C294.38 421.61 299.25 412.96 300.48 410.28C300.48 410.28 306.13 412.09 307.14 412.77C307.75 413.18 309.67 416.26 311.11 418.64C314.58 414.86 317.91 410.92 318.8 409.77C320.59 407.46 322.48 394.64 322.48 394.64C322.48 394.64 312.28 382.25 305.61 379.44Z" fill="#212121"/>
<path d="M307.14 412.77C306.13 412.08 300.48 410.28 300.48 410.28C299.25 412.96 294.38 421.61 294.38 421.61L296.08 428C299.15 427.4 301.68 426.87 302.56 426.58C303.98 426.11 307.62 422.46 311.11 418.64C309.67 416.25 307.75 413.18 307.14 412.77Z" fill="#161615"/>
<path d="M258.86 410.28C258.86 410.28 253.21 412.09 252.2 412.77C251.59 413.18 249.67 416.26 248.23 418.64C251.72 422.45 255.36 426.1 256.78 426.58C257.66 426.87 260.19 427.41 263.26 428L264.96 421.61C264.97 421.61 260.09 412.96 258.86 410.28Z" fill="#161615"/>
</g>
</g>
<defs>
<clipPath id="clip0_311_1799">
<rect width="562.43" height="562.43" fill="white"/>
</clipPath>
</defs>
</svg>
