<svg width="563" height="563" viewBox="0 0 563 563" fill="none" xmlns="http://www.w3.org/2000/svg">
<g clip-path="url(#clip0_311_1643)">
<mask id="mask0_311_1643" style="mask-type:luminance" maskUnits="userSpaceOnUse" x="0" y="0" width="563" height="563">
<path d="M281.21 562.42C436.518 562.42 562.42 436.518 562.42 281.21C562.42 125.902 436.518 0 281.21 0C125.902 0 0 125.902 0 281.21C0 436.518 125.902 562.42 281.21 562.42Z" fill="white"/>
</mask>
<g mask="url(#mask0_311_1643)">
<path d="M281.21 562.42C436.518 562.42 562.42 436.518 562.42 281.21C562.42 125.902 436.518 0 281.21 0C125.902 0 0 125.902 0 281.21C0 436.518 125.902 562.42 281.21 562.42Z" fill="#EAB308"/>
</g>
<mask id="mask1_311_1643" style="mask-type:luminance" maskUnits="userSpaceOnUse" x="0" y="0" width="563" height="563">
<path d="M281.21 562.42C436.518 562.42 562.42 436.518 562.42 281.21C562.42 125.902 436.518 0 281.21 0C125.902 0 0 125.902 0 281.21C0 436.518 125.902 562.42 281.21 562.42Z" fill="white"/>
</mask>
<g mask="url(#mask1_311_1643)">
<path d="M357.19 95.2C346.12 91.41 281.21 80.63 281.21 80.63C281.21 80.63 216.3 91.41 205.23 95.2C194.16 98.99 137.34 139.49 127.43 149.98C119.54 158.33 99.2601 233.65 91.3101 264.01C93.0401 287.01 95.3001 308.66 97.7001 314.96C97.7001 314.96 125.54 377.55 131.95 395.61C138.36 413.68 143.02 443.4 143.02 443.4C143.02 443.4 180.03 480.11 190.22 484.78C200.42 489.44 261.02 500.52 281.2 500.52C301.38 500.52 361.99 489.45 372.18 484.78C382.38 480.12 419.38 443.4 419.38 443.4C419.38 443.4 424.04 413.68 430.45 395.61C436.86 377.54 464.7 314.96 464.7 314.96C467.1 308.66 469.36 287.01 471.09 264.01C463.14 233.64 442.86 158.33 434.97 149.98C425.08 139.49 368.26 98.99 357.19 95.2Z" fill="#397244"/>
<path d="M445.09 115.68C438.33 103.12 371.69 74.47 360.1 70.93C348.51 67.39 281.22 61.92 281.22 61.92C281.22 61.92 213.93 67.39 202.34 70.93C190.75 74.47 124.11 103.12 117.35 115.68C110.59 128.24 88.05 184.25 88.05 200.67C88.05 209.44 89.34 237.62 91.32 264.01C99.27 233.64 119.55 158.33 127.44 149.98C137.35 139.49 194.17 98.99 205.24 95.2C216.31 91.41 281.22 80.63 281.22 80.63C281.22 80.63 346.13 91.41 357.2 95.2C368.27 98.99 425.09 139.49 435 149.98C442.89 158.33 463.18 233.65 471.12 264.01C473.11 237.61 474.39 209.44 474.39 200.67C474.38 184.25 451.85 128.23 445.09 115.68Z" fill="#21542F"/>
<path d="M345.09 228.09C343.66 219.19 354.73 206.62 359.67 204.44C364.61 202.26 384.81 206.05 390.67 210.87C396.53 215.69 394.11 234.29 390.67 240.49C387.23 246.69 371.31 249.33 363.94 248.18C356.57 247.04 346.13 234.52 345.09 228.09Z" fill="#212121"/>
<path d="M380.64 213.88C382.87 213.66 385.81 216.6 386.28 217.86C386.74 219.12 385.49 224.07 384.2 225.45C382.91 226.83 378.34 225.94 376.85 224.99C375.37 224.04 374.96 220.05 375.36 218.24C375.76 216.43 379.03 214.04 380.64 213.88Z" fill="white"/>
<path d="M217.37 228.12C218.8 219.22 207.73 206.65 202.79 204.47C197.85 202.29 177.65 206.08 171.79 210.9C165.93 215.72 168.35 234.32 171.79 240.52C175.23 246.72 191.15 249.36 198.52 248.21C205.89 247.07 216.33 234.55 217.37 228.12Z" fill="#212121"/>
<path d="M200.8 213.91C203.03 213.69 205.97 216.63 206.44 217.89C206.9 219.15 205.65 224.1 204.36 225.48C203.07 226.86 198.5 225.97 197.01 225.02C195.53 224.07 195.12 220.08 195.52 218.27C195.92 216.46 199.19 214.06 200.8 213.91Z" fill="white"/>
<path d="M361.95 438.06C361.95 438.06 357.18 426.7 353.03 413.97C348.88 401.24 343.08 347.61 343.08 347.61L281.21 323.06L219.34 347.61C219.34 347.61 213.53 401.25 209.39 413.97C205.24 426.7 200.47 438.06 200.47 438.06C200.47 438.06 195.6 443.74 194.66 446.81C193.73 449.88 202.85 460.56 207 464.08C211.15 467.6 248.51 484.19 281.21 484.19C313.91 484.19 351.27 467.6 355.42 464.08C359.57 460.56 368.69 449.88 367.76 446.81C366.83 443.74 361.95 438.06 361.95 438.06Z" fill="#21542F"/>
<path d="M333.3 407.35C334.17 400.14 337.89 364.3 342.92 356.21C347.95 348.12 374.1 304.27 374.1 304.27C374.1 304.27 360.84 301.79 356.76 299.61C352.68 297.42 335.49 284.6 334.47 280.82C333.45 277.03 331.56 248.48 331.56 248.48C331.56 248.48 312.77 263.56 307.3 266.4C301.84 269.24 281.22 275.58 281.22 275.58C281.22 275.58 260.6 269.24 255.14 266.4C249.68 263.56 230.88 248.48 230.88 248.48C230.88 248.48 228.99 277.04 227.97 280.82C226.95 284.61 209.76 297.43 205.68 299.61C201.6 301.8 188.34 304.27 188.34 304.27C188.34 304.27 214.49 348.12 219.52 356.21C224.55 364.3 228.26 400.14 229.14 407.35C229.84 413.15 226.17 435.06 224.7 443.41C230.49 444.85 236.55 446.31 240.43 447.13C249.83 449.1 281.22 450.19 281.22 450.19C281.22 450.19 312.62 449.1 322.01 447.13C325.89 446.32 331.96 444.85 337.74 443.41C336.27 435.06 332.59 413.16 333.3 407.35Z" fill="#FFCC66"/>
<path d="M347.72 371.73C352.09 357.74 374.09 304.27 374.09 304.27C374.09 304.27 347.94 348.12 342.91 356.21C337.88 364.3 334.17 400.14 333.29 407.35C332.59 413.15 336.27 435.06 337.73 443.41C331.94 444.85 325.88 446.31 322 447.13C312.6 449.1 281.21 450.19 281.21 450.19C281.21 450.19 249.81 449.1 240.42 447.13C236.54 446.32 230.48 444.85 224.69 443.41C226.16 435.06 229.83 413.16 229.13 407.35C228.26 400.14 224.54 364.3 219.51 356.21C214.48 348.12 188.33 304.27 188.33 304.27C188.33 304.27 210.33 357.74 214.7 371.73C219.07 385.72 214.26 430.3 214.26 430.3C214.26 430.3 209.34 437.51 208.8 439.37C208.25 441.23 222.57 455.43 228.03 459.15C233.49 462.87 268.82 466.8 281.21 466.8C293.59 466.8 328.92 462.87 334.39 459.15C339.85 455.43 354.17 441.23 353.62 439.37C353.07 437.51 348.16 430.3 348.16 430.3C348.16 430.3 343.35 385.72 347.72 371.73Z" fill="#E8AA46"/>
<path d="M241.6 276.66C241.6 276.66 241.44 281.13 241.6 281.95C241.76 282.76 245.42 287.89 245.42 287.89C245.42 287.89 249.49 289.84 251.44 290.01C251.44 290.01 251.68 285.29 251.44 282.93C251.44 282.93 246.65 279.35 241.6 276.66Z" fill="#E8AA46"/>
<path d="M320.82 276.66C320.82 276.66 320.98 281.13 320.82 281.95C320.66 282.76 317 287.89 317 287.89C317 287.89 312.93 289.84 310.98 290.01C310.98 290.01 310.74 285.29 310.98 282.93C310.98 282.93 315.78 279.35 320.82 276.66Z" fill="#E8AA46"/>
</g>
</g>
<defs>
<clipPath id="clip0_311_1643">
<rect width="562.43" height="562.43" fill="white"/>
</clipPath>
</defs>
</svg>
