<?xml version="1.0" encoding="utf-8"?>
<svg width="563" height="563" viewBox="0 0 563 563" fill="none" xmlns="http://www.w3.org/2000/svg">
<g clip-path="url(#clip0_311_1596)">
<mask id="mask0_311_1596" style="mask-type:luminance" maskUnits="userSpaceOnUse" x="0" y="0" width="563" height="563">
<path d="M281.21 562.42C436.518 562.42 562.42 436.518 562.42 281.21C562.42 125.902 436.518 0 281.21 0C125.902 0 0 125.902 0 281.21C0 436.518 125.902 562.42 281.21 562.42Z" fill="white"/>
</mask>
<g mask="url(#mask0_311_1596)">
<path d="M281.21 562.42C436.518 562.42 562.42 436.518 562.42 281.21C562.42 125.902 436.518 0 281.21 0C125.902 0 0 125.902 0 281.21C0 436.518 125.902 562.42 281.21 562.42Z" fill="#EF4444"/>
</g>
<mask id="mask1_311_1596" style="mask-type:luminance" maskUnits="userSpaceOnUse" x="0" y="0" width="563" height="563">
<path d="M281.21 562.42C436.518 562.42 562.42 436.518 562.42 281.21C562.42 125.902 436.518 0 281.21 0C125.902 0 0 125.902 0 281.21C0 436.518 125.902 562.42 281.21 562.42Z" fill="white"/>
</mask>
<g mask="url(#mask1_311_1596)">
<path d="M361.79 185.4C361.79 185.4 386.79 147.87 402.78 139.91C418.78 131.95 465.11 123.08 480.44 125.12C495.77 127.17 521.1 185.63 523.1 205.87C525.1 226.11 516.77 277.75 509.44 295.04C502.11 312.33 480.78 342.58 469.78 348.27C458.78 353.96 421.45 344.4 421.45 343.72C421.45 343.04 425.45 257.73 361.79 185.4Z" fill="#7BA1A3"/>
<path d="M490.27 162.03C486.13 157.61 467.9 149.6 459.07 150.71C452.86 151.49 439.29 155.41 428.98 160.35C427.12 169.26 423.43 187.02 422.34 192.86C420.87 200.78 422.34 227.47 422.34 227.47C422.34 227.47 434.67 254.35 436.33 261.71C437.99 269.07 429.01 308.1 429.01 308.1L409.45 277.39L419.03 308.66C419.03 308.66 459.34 314.18 467.08 307.28C474.81 300.38 491.1 285.19 494.97 272.76C498.84 260.33 504.63 220.3 504.63 208.98C504.63 197.65 494.41 166.44 490.27 162.03Z" fill="#648484"/>
<path d="M436.33 261.71C434.67 254.35 422.34 227.47 422.34 227.47C422.34 227.47 420.87 200.78 422.34 192.86C423.43 187.02 427.12 169.26 428.98 160.35C424.63 162.44 420.85 164.7 418.48 167C410.47 174.73 389.76 213.11 389.76 213.11L409.45 277.38L429.01 308.09C429.01 308.09 437.99 269.07 436.33 261.71Z" fill="#4F6B6A"/>
<path d="M200.63 185.4C200.63 185.4 175.63 147.87 159.64 139.91C143.64 131.95 97.3199 123.08 81.9799 125.12C66.6499 127.17 41.3199 185.63 39.3199 205.87C37.3199 226.11 45.6499 277.75 52.9899 295.04C60.3299 312.33 81.6499 342.58 92.6499 348.27C103.65 353.96 140.98 344.4 140.98 343.72C140.98 343.04 136.98 257.73 200.63 185.4Z" fill="#7BA1A3"/>
<path d="M72.1598 162.03C76.2998 157.61 94.5298 149.6 103.36 150.71C109.57 151.49 123.14 155.41 133.45 160.35C135.31 169.26 139 187.02 140.09 192.86C141.56 200.78 140.09 227.47 140.09 227.47C140.09 227.47 127.76 254.35 126.1 261.71C124.44 269.07 133.42 308.1 133.42 308.1L152.98 277.39L143.4 308.66C143.4 308.66 103.09 314.18 95.3498 307.28C87.6198 300.38 71.3298 285.19 67.4598 272.76C63.5898 260.33 57.7998 220.3 57.7998 208.98C57.7998 197.65 68.0098 166.44 72.1598 162.03Z" fill="#648484"/>
<path d="M126.09 261.71C127.75 254.35 140.08 227.47 140.08 227.47C140.08 227.47 141.55 200.78 140.08 192.86C138.99 187.02 135.3 169.26 133.44 160.35C137.79 162.44 141.57 164.7 143.94 167C151.95 174.73 172.66 213.11 172.66 213.11L152.97 277.38L133.41 308.09C133.41 308.09 124.44 269.07 126.09 261.71Z" fill="#4F6B6A"/>
<path d="M415.59 318.96C417.98 306.81 416.14 276.62 412.28 258.21C408.45 239.99 394.13 206.47 393.84 205.81C380.55 191.18 364.92 178.46 357.69 173.17C345.63 164.33 294.83 158.81 281.21 158.81C267.59 158.81 216.78 164.33 204.73 173.17C197.5 178.47 181.84 191.2 168.54 205.86C168.05 207 153.92 240.13 150.12 258.22C146.25 276.63 144.41 306.82 146.81 318.97C149.2 331.12 159.14 374.01 166.87 387.45C172.52 397.27 195.22 421.09 207.06 433.23C236.3 442.66 270.86 450.4 281.2 450.4C291.54 450.4 326.07 442.66 355.31 433.24C367.15 421.1 389.86 397.27 395.51 387.45C403.26 374 413.2 331.11 415.59 318.96Z" fill="#9BB9BC"/>
<path d="M433.26 330C438.05 305.33 422.95 260.79 414.12 236.12C410.58 226.23 402.73 215.59 393.84 205.81C394.13 206.48 408.45 239.99 412.28 258.21C416.15 276.62 417.99 306.81 415.59 318.96C413.2 331.11 403.26 374 395.53 387.44C389.88 397.26 367.17 421.09 355.33 433.23C369.81 428.56 383.01 423.49 391.3 418.73C416.33 404.37 428.48 354.67 433.26 330Z" fill="#7BA1A3"/>
<path d="M146.81 318.96C144.42 306.81 146.26 276.62 150.12 258.21C153.92 240.12 168.05 206.99 168.54 205.85C159.67 215.63 151.84 226.25 148.3 236.12C139.46 260.79 124.37 305.34 129.16 330C133.95 354.67 146.1 404.37 171.13 418.73C179.42 423.48 192.6 428.56 207.07 433.22C195.23 421.07 172.53 397.25 166.88 387.44C159.14 374 149.2 331.11 146.81 318.96Z" fill="#7BA1A3"/>
<path d="M327.51 267.34C326.47 260.89 334.5 251.77 338.08 250.19C341.66 248.61 356.31 251.36 360.56 254.85C364.81 258.35 363.06 271.83 360.56 276.33C358.06 280.82 346.52 282.74 341.18 281.91C335.84 281.07 328.26 272 327.51 267.34Z" fill="#212121"/>
<path d="M353.29 257.03C354.91 256.87 357.04 259.01 357.38 259.92C357.72 260.83 356.81 264.42 355.87 265.42C354.94 266.42 351.62 265.78 350.54 265.09C349.46 264.4 349.17 261.51 349.46 260.2C349.75 258.88 352.12 257.14 353.29 257.03Z" fill="white"/>
<path d="M234.89 267.36C235.93 260.91 227.9 251.79 224.32 250.21C220.74 248.63 206.09 251.38 201.84 254.87C197.59 258.37 199.34 271.85 201.84 276.35C204.34 280.85 215.88 282.76 221.22 281.93C226.57 281.09 234.14 272.02 234.89 267.36Z" fill="#212121"/>
<path d="M222.88 257.05C224.5 256.89 226.63 259.03 226.97 259.94C227.31 260.85 226.4 264.44 225.46 265.44C224.53 266.44 221.21 265.8 220.13 265.11C219.05 264.42 218.76 261.53 219.05 260.22C219.35 258.9 221.71 257.16 222.88 257.05Z" fill="white"/>
<path d="M328.59 293.28C328.59 293.28 336.35 305.43 337.82 309.39C339.29 313.35 340.4 318.96 340.4 318.96C340.4 318.96 345.59 318.29 348.09 317.57C350.58 316.84 358.23 306.4 358.23 306.4C358.23 306.4 358.28 315.96 357.76 319.34C357.24 322.72 350.07 357.67 345.51 367.06H353.66C353.66 367.06 346.34 376.1 343.86 378.17C341.37 380.24 336.34 381.97 336.34 381.97C336.34 381.97 332.5 391.22 330.56 394.26C328.63 397.3 316.75 402.73 316.75 402.73L319.51 357.63L328.59 293.28Z" fill="#7BA1A3"/>
<path d="M367.36 300.27C367.36 300.27 360 323.1 357.42 328.53C354.84 333.96 343.43 339.85 343.43 339.85C343.43 339.85 344.63 348.32 344.81 352.46C344.99 356.6 330.54 372.34 330.54 372.34V326.15C323.98 327.22 318.39 327.98 318.39 327.98L314.52 377.31C314.52 377.31 350.23 372.89 355.2 368.29C360.17 363.69 372.32 354.3 372.32 344.36C372.33 334.42 367.36 300.27 367.36 300.27Z" fill="#EAE9E1"/>
<path d="M344.81 352.46C344.63 348.32 343.43 339.85 343.43 339.85C343.43 339.85 354.84 333.96 357.42 328.53C360 323.1 367.36 300.27 367.36 300.27C367.36 300.27 355.95 319.32 350.06 321.9C346.91 323.28 338.09 324.92 330.55 326.14V372.33C330.55 372.34 345 356.6 344.81 352.46Z" fill="#D6D4C9"/>
<path d="M322.31 429.86C323.14 424.89 328.57 410.26 330.55 405.15C332.53 400.04 336.33 381.96 336.33 381.96L312.64 389L300.08 445.61L301.28 447.5C307.61 446.22 314.86 444.55 322.47 442.63C322.13 438.31 321.84 432.7 322.31 429.86Z" fill="#7BA1A3"/>
<path d="M233.83 293.28C233.83 293.28 226.07 305.43 224.6 309.39C223.13 313.35 222.02 318.96 222.02 318.96C222.02 318.96 216.83 318.29 214.33 317.57C211.84 316.84 204.19 306.4 204.19 306.4C204.19 306.4 204.14 315.96 204.66 319.34C205.18 322.72 212.35 357.67 216.91 367.06H208.76C208.76 367.06 216.08 376.1 218.56 378.17C221.04 380.24 226.08 381.97 226.08 381.97C226.08 381.97 229.92 391.22 231.86 394.26C233.79 397.3 245.67 402.73 245.67 402.73L242.91 357.63L233.83 293.28Z" fill="#7BA1A3"/>
<path d="M195.06 300.27C195.06 300.27 202.42 323.1 205 328.53C207.58 333.96 218.99 339.85 218.99 339.85C218.99 339.85 217.79 348.32 217.61 352.46C217.43 356.6 231.88 372.34 231.88 372.34V326.15C238.44 327.22 244.03 327.98 244.03 327.98L247.9 377.31C247.9 377.31 212.19 372.89 207.22 368.29C202.25 363.69 190.1 354.3 190.1 344.36C190.09 334.42 195.06 300.27 195.06 300.27Z" fill="#EAE9E1"/>
<path d="M217.61 352.46C217.79 348.32 218.99 339.85 218.99 339.85C218.99 339.85 207.58 333.96 205 328.53C202.42 323.1 195.06 300.27 195.06 300.27C195.06 300.27 206.47 319.32 212.36 321.9C215.51 323.28 224.33 324.92 231.87 326.14V372.33C231.87 372.34 217.42 356.6 217.61 352.46Z" fill="#D6D4C9"/>
<path d="M240.11 429.86C239.28 424.89 233.85 410.26 231.87 405.15C229.89 400.04 226.09 381.96 226.09 381.96L249.77 389L262.33 445.61L261.13 447.5C254.8 446.22 247.55 444.55 239.94 442.63C240.29 438.31 240.58 432.7 240.11 429.86Z" fill="#7BA1A3"/>
<path d="M337.21 346.84C335.53 329.72 328.58 293.27 328.58 293.27H281.21H233.84C233.84 293.27 226.89 329.72 225.21 346.84C223.53 363.96 236.95 401.51 244.38 416.15C251.81 430.78 257.56 470.55 258.52 478C258.52 478 251.87 480.48 250.13 482.69C248.39 484.9 250.73 490.08 251.93 491.8C253.13 493.53 269.63 497.87 281.21 497.87C292.79 497.87 309.29 493.52 310.49 491.8C311.69 490.07 314.03 484.9 312.29 482.69C310.55 480.48 303.9 478 303.9 478C304.86 470.54 310.61 430.78 318.04 416.15C325.47 401.52 338.89 363.96 337.21 346.84Z" fill="#9BB9BC"/>
<path d="M328.51 279.34C328.51 279.34 341.21 274.37 346.25 274.44C351.29 274.51 370.76 277.89 370.76 277.89L350.67 290.04L328.51 279.34Z" fill="#9BB9BC"/>
<path d="M233.91 279.34C233.91 279.34 221.21 274.37 216.17 274.44C211.13 274.51 191.66 277.89 191.66 277.89L211.75 290.04L233.91 279.34Z" fill="#9BB9BC"/>
</g>
</g>
<defs>
<clipPath id="clip0_311_1596">
<rect width="562.43" height="562.43" fill="white"/>
</clipPath>
</defs>
</svg>
